<?xml version="1.0" encoding="UTF-8"?>
<svg width="32px" height="32px" viewBox="0 0 32 32" version="1.1" xmlns="http://www.w3.org/2000/svg" xmlns:xlink="http://www.w3.org/1999/xlink">
    <!-- Generator: Sketch 52.6 (67491) - http://www.bohemiancoding.com/sketch -->
    <title>douban0</title>
    <desc>Created with Sketch.</desc>
    <g id="2in官网UI" stroke="none" stroke-width="1" fill="none" fill-rule="evenodd">
        <g id="首页-联系我们" transform="translate(-211.000000, -713.000000)" fill="#9A0909" fill-rule="nonzero">
            <g id="douban0" transform="translate(211.000000, 713.000000)">
                <polygon id="Shape" points="10.6666667 11.4459203 21.3333333 11.4459203 21.3333333 15.5749526 10.6666667 15.5749526"></polygon>
                <path d="M15.9999237,0 C7.16342885,0 0,7.16410874 0,16.0004525 C0,24.8367208 7.16346698,32 15.9999237,32 C24.8364949,32 32,24.8367209 32,16.0004525 C32,7.16410874 24.836533,0 15.9999237,0 Z M7.04031733,5.83856855 L24.8435505,5.83856855 L24.8435505,7.45985894 L7.04031733,7.45985894 L7.04031733,5.83856855 Z M23.2250609,10.0023002 L23.2250609,17.6296617 L7.92315065,17.6296617 L7.92315065,10.0023002 L23.2250609,10.0023002 Z M24.8436267,24.5200045 L6.15752213,24.5200045 L6.15752213,22.8618726 L12.0155415,22.8618726 C11.5060855,21.0932162 10.8420154,20.4576341 10.0171147,19.2218032 L12.0155415,18.5211358 C12.8088253,19.6945586 13.5161446,21.0932162 14.1424573,22.8618726 L17.9232555,22.8618726 C18.6721077,21.0932162 19.3294273,19.9811833 19.8950996,18.4295788 L22.0676293,19.3131717 C21.4999737,20.6219691 20.8862467,21.0932162 20.2367837,22.8618726 L24.8436267,22.8618726 L24.8436267,24.5200045 Z" id="Shape"></path>
            </g>
        </g>
    </g>
</svg>