<?xml version="1.0" encoding="UTF-8"?>
<svg width="32px" height="32px" viewBox="0 0 32 32" version="1.1" xmlns="http://www.w3.org/2000/svg" xmlns:xlink="http://www.w3.org/1999/xlink">
    <!-- Generator: Sketch 52.6 (67491) - http://www.bohemiancoding.com/sketch -->
    <title>weibo-circle</title>
    <desc>Created with Sketch.</desc>
    <g id="2in官网UI" stroke="none" stroke-width="1" fill="none" fill-rule="evenodd">
        <g id="首页-联系我们" transform="translate(-161.000000, -713.000000)" fill="#9A0909" fill-rule="nonzero">
            <g id="weibo-circle" transform="translate(161.000000, 713.000000)">
                <path d="M16,0 C7.16428572,0 0,7.16428572 0,16 C0,24.8357143 7.16428572,32 16,32 C24.8357143,32 32,24.8357143 32,16 C32,7.16428572 24.8357143,0 16,0 Z M14.4142857,24 C10.325,24 6.14285716,22.0142857 6.14285716,18.7464286 C6.14285716,17.0392857 7.22142859,15.0642857 9.08214284,13.2 C11.5642857,10.7142857 14.4607143,9.57857144 15.55,10.6714286 C16.0321428,11.1535714 16.0785714,11.9857143 15.7678572,12.9785714 C15.6071429,13.4785714 16.2357143,13.2035714 16.2357143,13.2035714 C18.2428571,12.3607143 19.9928571,12.3107143 20.6321428,13.2285714 C20.975,13.7178572 20.9392857,14.4 20.625,15.1964286 C20.4785714,15.5607143 20.6714286,15.6178571 20.9464286,15.7 C22.0785714,16.05 23.3357143,16.9 23.3357143,18.3964286 C23.3428571,20.8785714 19.775,24 14.4142857,24 Z M21.8178572,13.6142857 C21.9554799,13.1915256 21.8574968,12.7274667 21.5607143,12.3964286 C21.2636646,12.0663394 20.812632,11.9205373 20.3785714,12.0142857 C20.1508146,12.0627718 19.9144917,11.9860679 19.7586231,11.8130677 C19.6027545,11.6400676 19.5510205,11.397054 19.6229088,11.1755677 C19.6947971,10.9540815 19.879386,10.7877718 20.1071428,10.7392857 C20.9678571,10.5571429 21.8964286,10.8214286 22.525,11.5214286 C23.1571428,12.2214286 23.325,13.175 23.0571428,14.0142857 C23.0045386,14.1784582 22.8886372,14.3148752 22.7351192,14.3933102 C22.5816012,14.4717451 22.4031428,14.4857216 22.2392857,14.4321428 C22.0747419,14.3798677 21.9377932,14.2642117 21.8587118,14.1107402 C21.7796304,13.9572687 21.764929,13.7786207 21.8178572,13.6142857 Z M25.6035714,14.8392857 C25.6035714,14.8392857 25.6035714,14.8428572 25.6035714,14.8392857 C25.5429443,15.0304711 25.4086028,15.1895998 25.2302947,15.2814351 C25.0519867,15.3732705 24.8444251,15.3902347 24.6535714,15.3285714 C24.2561535,15.1993414 24.0387077,14.7724442 24.1678572,14.375 C24.5607143,13.1535714 24.3107143,11.7607143 23.3928572,10.7392857 C22.5045448,9.75401329 21.1583286,9.31707152 19.8607143,9.59285716 C19.664624,9.63475616 19.4599207,9.59692999 19.2917529,9.4877214 C19.1235851,9.37851281 19.0057676,9.20689324 18.9642857,9.01071428 C18.9215994,8.81507177 18.9586516,8.61048413 19.0672404,8.44223853 C19.1758292,8.27399293 19.346998,8.15596662 19.5428572,8.11428572 C21.3071429,7.73928572 23.2142857,8.28571428 24.5107143,9.725 C25.8071428,11.1607143 26.1571428,13.1214286 25.6035714,14.8392857 Z M13.6571428,15.0571428 C10.3928571,15.3785714 7.91785713,17.3821428 8.13214284,19.5285714 C8.34285713,21.675 11.1607143,23.1535714 14.425,22.8321428 C17.6892857,22.5071428 20.1642857,20.5071428 19.95,18.3571428 C19.7392857,16.2107143 16.9214286,14.7321428 13.6571428,15.0571428 Z M16.5214286,20.1178572 C15.8535714,21.6285714 13.9392857,22.4321429 12.3142857,21.9071428 C10.7464286,21.4 10.0821429,19.8464286 10.7678572,18.45 C11.4428572,17.0785714 13.1964286,16.3035714 14.75,16.7071428 C16.3571428,17.125 17.1785714,18.6428571 16.5214286,20.1178572 Z M13.2,18.9678572 C12.6928572,18.7571429 12.0428572,18.975 11.7285714,19.4642857 C11.4142857,19.9571429 11.5607143,20.5428572 12.0607143,20.7714286 C12.5714286,21.0035714 13.2464286,20.7821428 13.5607143,20.2785714 C13.875,19.7678572 13.7107143,19.1857143 13.2,18.9678572 Z M14.4464286,18.45 C14.2535714,18.3714286 14.0107143,18.4678572 13.8964286,18.6571428 C13.7857143,18.85 13.8464286,19.0678571 14.0428572,19.15 C14.2392857,19.2321428 14.4928572,19.1392857 14.6071428,18.9428572 C14.7142857,18.7428572 14.6428571,18.5214286 14.4464286,18.45 Z" id="Shape"></path>
            </g>
        </g>
    </g>
</svg>