<?xml version="1.0" encoding="UTF-8"?>
<svg width="32px" height="32px" viewBox="0 0 32 32" version="1.1" xmlns="http://www.w3.org/2000/svg" xmlns:xlink="http://www.w3.org/1999/xlink">
    <!-- Generator: Sketch 52.6 (67491) - http://www.bohemiancoding.com/sketch -->
    <title>weixin</title>
    <desc>Created with Sketch.</desc>
    <g id="2in官网UI" stroke="none" stroke-width="1" fill="none" fill-rule="evenodd">
        <g id="首页-联系我们" transform="translate(-111.000000, -713.000000)" fill="#9A0909" fill-rule="nonzero">
            <g id="weixin" transform="translate(111.000000, 713.000000)">
                <path d="M19.0811791,17.0666667 C18.6086171,17.0666667 18.1333333,17.6015038 18.1333333,18.1323865 C18.1333333,18.6721248 18.6086171,19.2 19.0811791,19.2 C19.7977174,19.2 20.2666667,18.6721248 20.2666667,18.1323865 C20.2667162,17.6014481 19.7977174,17.0666667 19.0811791,17.0666667 Z" id="Shape"></path>
                <path d="M22.2777038,17.0666667 C21.8072309,17.0666667 21.3333333,17.6015038 21.3333333,18.1323865 C21.3333333,18.6721248 21.8072309,19.2 22.2777038,19.2 C22.9900392,19.2 23.4666667,18.6721248 23.4666667,18.1323865 C23.4666667,17.6014481 22.9899896,17.0666667 22.2777038,17.0666667 Z" id="Shape"></path>
                <path d="M10.7666901,10.6666667 C10.1866232,10.6666667 9.6,11.0885256 9.6,11.7317724 C9.6,12.3718081 10.1866232,12.8 10.7666901,12.8 C11.3475664,12.8 11.7333333,12.3717635 11.7333333,11.7317724 C11.7333333,11.0885702 11.3475664,10.6666667 10.7666901,10.6666667 Z" id="Shape"></path>
                <path d="M15.0308143,12.8 C15.6135961,12.8 16,12.3717635 16,11.7317724 C16,11.0885702 15.6135961,10.6666667 15.0308143,10.6666667 C14.4501767,10.6666667 13.8666667,11.0885256 13.8666667,11.7317724 C13.8666667,12.3718081 14.4501767,12.8 15.0308143,12.8 Z" id="Shape"></path>
                <path d="M16.0012513,0 C7.16839727,0 0,7.16438134 0,15.9999821 C0,24.8356187 7.16839727,32 16.0012513,32 C24.8350349,32 32,24.8355829 32,16.0000179 C32,7.16438134 24.8349991,0 16.0012513,0 Z M13.1750784,19.7695124 C12.3205409,19.7695124 11.6338578,19.595258 10.7774255,19.4261875 L8.38427729,20.6265196 L9.06842208,18.5665705 C7.35552174,17.3694918 6.32930456,15.8251914 6.32930456,13.9459321 C6.32930456,10.6888328 9.41167428,8.12424656 13.1751141,8.12424656 C16.5404586,8.12424656 19.489117,10.1725406 20.0819519,12.9307588 C19.8645814,12.9063045 19.6447084,12.8908597 19.4228333,12.8908597 C16.1707144,12.8908597 13.6032409,15.3172651 13.6032409,18.3081562 C13.6032409,18.805071 13.6803931,19.2847533 13.814176,19.7425198 C13.6026689,19.7592516 13.3898032,19.7695124 13.1750784,19.7695124 Z M23.272399,22.1669946 L23.7880817,23.8784348 L21.9105447,22.8497831 C21.2257922,23.0214276 20.537822,23.1931437 19.8562155,23.1931437 C16.5989842,23.1931437 14.034049,20.9672703 14.034049,18.2258913 C14.034049,15.4889097 16.5989485,13.2586031 19.8562155,13.2586031 C22.9309344,13.2586031 25.6707312,15.4889097 25.6707312,18.2258913 C25.6706954,19.7695124 24.6470524,21.1369843 23.272399,22.1669946 Z" id="Shape"></path>
            </g>
        </g>
    </g>
</svg>