<?xml version="1.0" encoding="UTF-8"?>
<svg width="62px" height="62px" viewBox="0 0 62 62" version="1.1" xmlns="http://www.w3.org/2000/svg" xmlns:xlink="http://www.w3.org/1999/xlink">
    <!-- Generator: Sketch 52.6 (67491) - http://www.bohemiancoding.com/sketch -->
    <title>基金(1)</title>
    <desc>Created with Sketch.</desc>
    <g id="2in官网UI" stroke="none" stroke-width="1" fill="none" fill-rule="evenodd">
        <g id="业务板块-不良资产基金" transform="translate(-387.000000, -571.000000)" fill="#9A0909" fill-rule="nonzero">
            <g id="Group-2" transform="translate(111.000000, 571.000000)">
                <g id="基金(1)" transform="translate(276.000000, 0.000000)">
                    <path d="M43.7227316,14.034487 C44.1273933,13.2614722 44.3208549,12.7602182 44.3208549,12.4969109 C44.1889241,11.4689038 43.5908701,10.8997443 42.5353543,10.7722481 C41.4711077,10.7722481 40.6795228,11.2225036 40.1517303,12.114561 L31.0044346,25.3589875 L21.8570004,12.1061075 C21.3292772,11.2141194 20.528823,10.7638639 19.4733765,10.7638639 C18.4090606,10.8912907 17.8198066,11.4689731 17.6878758,12.4884574 C17.8198066,13.0066184 18.0133375,13.5163952 18.2859991,14.0261027 C18.4179299,14.1535989 18.48833,14.2809565 18.48833,14.4083834 L26.6417791,26.505968 L21.8657312,26.505968 C20.4057615,26.505968 19.675638,27.0836504 19.675638,28.2305615 C19.8075689,29.1310725 20.537623,29.64078 21.8657312,29.7682762 L28.8230722,29.7682762 L28.8230722,33.2173939 L21.8657312,33.2173939 C20.4057615,33.2173939 19.675638,33.7950763 19.675638,34.9419875 C19.8075689,35.8340449 20.537623,36.3522059 21.8657312,36.4796328 L28.8230722,36.4796328 L28.8230722,44.1596138 C28.8230722,45.4338826 29.5443264,46.0795398 31.0131654,46.0795398 C32.4644043,46.0795398 33.1944585,45.4338826 33.1944585,44.1596138 L33.1944585,36.4966785 L40.1517996,36.4966785 C41.4711077,36.3691823 42.2011619,35.8510213 42.3418927,34.9589638 C42.3418927,33.8035991 41.6118385,33.2343703 40.1517996,33.2343703 L33.1944585,33.2343703 L33.1944585,29.7852526 L40.1517996,29.7852526 C41.4711077,29.6577564 42.2011619,29.1480489 42.3418927,28.2475379 C42.3418927,27.0921732 41.6118385,26.5229444 40.1517996,26.5229444 L35.3845516,26.5229444 L43.53807,14.4253598 C43.52927,14.2894793 43.5908701,14.1620525 43.7228009,14.0345563 L43.7227316,14.034487 Z M58.3323372,38.0003018 L53.1868968,38.5355085 C52.6415735,38.5864377 52.166581,38.926312 51.9467194,39.4105202 C51.7268578,39.8862749 51.7883886,40.4554345 52.1050502,40.8801907 L52.6151735,41.5514165 L30.0633189,57.7777981 L24.0030935,50.4971434 C23.3874395,49.7580121 22.2615929,49.6136088 21.4699387,50.1828376 C18.9280532,52.0093588 15.154721,54.6939153 14.5390669,55.0761959 C13.747482,55.4755223 13.3604203,56.3760332 13.6507513,57.2170922 C13.9761436,58.1515559 15.0139902,58.644287 15.9815059,58.3385041 C16.2981676,58.2365072 16.5180292,58.1600788 22.2439929,54.0567809 L28.304149,61.3373664 C28.6647414,61.7706455 29.2012647,62 29.737788,62 C30.1160497,62 30.5030421,61.8895495 30.8372345,61.6431493 L54.7963973,44.4143983 L55.1657897,44.9070601 C55.4561207,45.28941 55.9222439,45.510311 56.4060364,45.510311 C56.4587671,45.510311 56.5115672,45.510311 56.5642979,45.5017882 C57.1096212,45.4423361 57.5846137,45.1109847 57.8132753,44.6267764 L59.9066377,40.0477239 C60.1177685,39.5634463 60.0649685,39.0028097 59.7395068,38.5694613 C59.4141144,38.1702043 58.8775219,37.9408497 58.3321986,38.0003018 L58.3323372,38.0003018 Z M31.0044346,0 C13.9057436,0 0,13.4313747 0,29.9465629 C0,37.9408497 3.22793963,45.4593125 9.07696486,51.1173014 C9.43762657,51.4656292 9.90374978,51.6355317 10.3787423,51.6355317 C10.8629205,51.6354482 11.3286975,51.4500151 11.6804504,51.1173014 C12.4017739,50.420715 12.4017739,49.2993031 11.6804504,48.6026474 C6.51747931,43.6242685 3.67653212,36.9893403 3.67653212,29.9466322 C3.67653212,15.3938456 15.9287752,3.55963754 30.9955654,3.55963754 C46.0623555,3.55963754 58.3146679,15.3938456 58.3146679,29.9465629 C58.3146679,30.9320251 59.1414528,31.7221549 60.1616993,31.7221549 C61.1820151,31.7221549 62,30.9235716 62,29.9465629 C62,13.4313747 48.0941871,1.96937989e-15 31.0043654,1.96937989e-15 L31.0044346,0 Z" id="Shape"></path>
                </g>
            </g>
        </g>
    </g>
</svg>