<?xml version="1.0" encoding="UTF-8"?>
<svg width="357px" height="364px" viewBox="0 0 357 364" version="1.1" xmlns="http://www.w3.org/2000/svg" xmlns:xlink="http://www.w3.org/1999/xlink">
    <!-- Generator: Sketch 52.6 (67491) - http://www.bohemiancoding.com/sketch -->
    <title>Group 11</title>
    <desc>Created with Sketch.</desc>
    <g id="2in官网UI" stroke="none" stroke-width="1" fill="none" fill-rule="evenodd">
        <g id="业务板块-BE管理系统" transform="translate(-779.000000, -476.000000)" fill="#FFFFFF">
            <g id="Group-11" transform="translate(779.000000, 476.000000)">
                <g id="Group-7" transform="translate(2.000000, 0.000000)">
                    <g id="online-shop" fill-rule="nonzero">
                        <polygon id="Rectangle-path" points="29 8 42 8 42 15 29 15"></polygon>
                        <path d="M54.9931116,0 L4.99507971,0 C2.24365282,0 0,2.24409449 0,4.99606299 L0,46.3700787 C0,49.1338583 2.24365282,51.3779528 4.99507971,51.3779528 L23.1804763,51.3779528 C22.5900413,54.3897638 19.9448927,56.6692913 16.7683527,56.6692913 L12.8360559,56.6692913 C11.9149774,56.6692913 11.1710293,57.4133858 11.1710293,58.3346457 C11.1710293,59.2559055 11.9149774,60 12.8360559,60 L47.1639441,60 C48.0850226,60 48.8289707,59.2559055 48.8289707,58.3346457 C48.8289707,57.4133858 48.0850226,56.6692913 47.1639441,56.6692913 L43.2316473,56.6692913 C40.0551073,56.6692913 37.39815,54.3897638 36.8195237,51.3779528 L55.0049203,51.3779528 C57.7563472,51.3779528 60,49.1338583 60,46.3818898 L60,4.99606299 C59.9881913,2.24409449 57.7445385,0 54.9931116,0 Z M24.1369809,56.6692913 C25.4241291,55.2165354 26.2861641,53.3976378 26.5459555,51.3779528 L33.4422358,51.3779528 C33.7020272,53.3976378 34.5640622,55.2165354 35.8512104,56.6692913 L24.1369809,56.6692913 Z M56.6581382,46.3700787 C56.6581382,47.2913386 55.9141901,48.0354331 54.9931116,48.0354331 L4.99507971,48.0354331 C4.07400118,48.0354331 3.33005314,47.2913386 3.33005314,46.3700787 L3.33005314,40.6535433 L56.6581382,40.6535433 L56.6581382,46.3700787 L56.6581382,46.3700787 Z M56.6581382,37.3346457 L3.33005314,37.3346457 L3.33005314,4.99606299 C3.33005314,4.07480315 4.07400118,3.33070866 4.99507971,3.33070866 L54.9813029,3.33070866 C55.9023814,3.33070866 56.6463295,4.07480315 56.6463295,4.99606299 L56.6463295,37.3346457 L56.6581382,37.3346457 L56.6581382,37.3346457 Z" id="Shape"></path>
                        <path d="M15.5,13.207825 C17.2237569,13.207825 18.6243094,14.5860328 18.6243094,16.2822886 C18.6243094,17.2010938 19.378453,17.9432057 20.3121547,17.9432057 C21.2458564,17.9432057 22,17.2010938 22,16.2822886 C22,13.3256205 19.9530387,10.8401346 17.1878453,10.1098023 L17.1878453,8.66091712 C17.1878453,7.74211191 16.4337017,7 15.5,7 C14.5662983,7 13.8121547,7.74211191 13.8121547,8.66091712 L13.8121547,10.1098023 C11.0469613,10.8401346 9,13.3256205 9,16.2822886 C9,19.8161548 12.160221,22.6668069 15.7513812,22.6668069 C15.7034991,22.6785865 15.7513812,22.6668069 15.7633517,22.6668069 C17.3674033,22.796382 18.6243094,24.1274716 18.6243094,25.729491 C18.6243094,27.4257467 17.2237569,28.8039546 15.5,28.8039546 C13.7762431,28.8039546 12.3756906,27.4257467 12.3756906,25.729491 C12.3756906,24.8106857 11.621547,24.0685738 10.6878453,24.0685738 C9.75414365,24.0685738 9,24.8106857 9,25.729491 C9,28.686159 11.0469613,31.1716449 13.8121547,31.9019773 L13.8121547,33.3390829 C13.8121547,34.2578881 14.5662983,35 15.5,35 C16.4337017,35 17.1878453,34.2578881 17.1878453,33.3390829 L17.1878453,31.9137568 C19.9530387,31.1834245 22,28.6979386 22,25.7412705 C22,22.2074043 19.0791897,19.3449727 15.4880295,19.3449727 C15.5359116,19.3331931 15.4880295,19.3449727 15.4760589,19.3449727 C13.8720074,19.2153976 12.3637201,17.9078671 12.3637201,16.2940682 C12.3756906,14.5860328 13.7762431,13.207825 15.5,13.207825 Z" id="Shape"></path>
                        <path d="M52.8702194,24.0058377 L38.4628261,18.1293328 C37.7906502,17.8627958 37.0296963,18.0151026 36.5223937,18.522792 C36.0150911,19.0304815 35.8629004,19.7920156 36.1292342,20.464704 L42.0012616,34.8830833 C42.280278,35.5557718 42.9397714,36 43.6626775,36 C44.2587581,36 45.1084899,35.6319252 45.3748238,34.7307765 L46.503572,31.037336 L48.5581475,33.0934781 C49.2556885,33.84232 50.4098019,33.7534744 51.0946604,33.0934781 C51.7922014,32.3954052 51.7922014,31.2657962 51.0946604,30.5550311 L49.0400849,28.498889 L52.7307112,27.36928 C53.4536174,27.153512 53.9609199,26.4935158 53.9989676,25.7319817 C54.0243328,24.9831398 53.580443,24.2850669 52.8702194,24.0058377 Z M43.941694,27.1408198 L43.4090263,28.8669638 L41.0373867,23.0412278 L46.8586838,25.4146758 L45.133855,25.9477497 C44.5631396,26.125441 44.1192499,26.5696692 43.941694,27.1408198 Z" id="Shape"></path>
                    </g>
                    <g id="Group-5" transform="translate(106.000000, 5.000000)" font-weight="normal">
                        <text id="标准化管理" font-family="PingFangSC-Regular, PingFang SC" font-size="18" letter-spacing="2.451429">
                            <tspan x="1" y="19">标准化管理</tspan>
                        </text>
                        <text id="STANDARDIZE-DMANAGEM" font-family="MicrosoftYaHei, Microsoft YaHei" font-size="14" letter-spacing="1.555556">
                            <tspan x="0" y="47">STANDARDIZE DMANAGEMENT</tspan>
                        </text>
                    </g>
                </g>
                <g id="Group-9" transform="translate(0.000000, 304.000000)">
                    <g id="Group-6" transform="translate(108.000000, 5.000000)" font-weight="normal" letter-spacing="2">
                        <text id="移动办公" font-family="PingFangSC-Regular, PingFang SC" font-size="18">
                            <tspan x="0" y="19">移动办</tspan>
                            <tspan x="60" y="19">公</tspan>
                        </text>
                        <text id="CAPITAL-SETTLEMENT" font-family="MicrosoftYaHei, Microsoft YaHei" font-size="14">
                            <tspan x="0" y="47">CAPITAL SETTLEMEN</tspan>
                            <tspan x="173.74707" y="47">T</tspan>
                        </text>
                    </g>
                    <g id="Group-2" fill-rule="nonzero">
                        <path d="M29.3669946,43.4482759 L30.6330054,43.4482759 C31.4232106,43.4482759 32.0689655,42.7596938 32.0689655,41.8965517 C32.0689655,41.0426418 31.4317541,40.3448276 30.6330054,40.3448276 L29.3669946,40.3448276 C28.5767894,40.3448276 27.9310345,41.0334096 27.9310345,41.8965517 C27.9310345,42.7596938 28.5682459,43.4482759 29.3669946,43.4482759 Z" id="Shape"></path>
                        <path d="M54.9910596,0 L4.99915945,0 C2.24275213,0 0,2.24238658 0,4.99834463 L0,44.6000377 C0,47.3659279 2.24275213,49.5983823 4.99915945,49.5983823 L17.8428316,49.5983823 L15.5902985,56.6612506 L12.6265034,56.6612506 C11.707701,56.6612506 10.9568566,57.4020404 10.9568566,58.3306253 C10.9568566,59.2592102 11.6977672,60 12.6265034,60 L47.3738022,60 C48.2926046,60 49.043449,59.2592102 49.043449,58.3306253 C49.043449,57.4119726 48.3023856,56.6612506 47.3738022,56.6612506 L44.9334434,56.6612506 L42.6708236,49.5983823 L55.0008406,49.5983823 C57.7572479,49.5983823 60,47.3559957 60,44.6000377 L60,4.99834463 C59.990219,2.24238658 57.7474669,0 54.9910596,0 Z M19.0877692,56.6513184 L21.3502361,49.5982295 L39.1635719,49.5982295 L41.4359727,56.6513184 L19.0877692,56.6513184 Z M56.6607064,44.6000377 C56.6607064,45.5186904 55.9197958,46.2694124 54.9910596,46.2694124 L4.99915945,46.2694124 C4.08035701,46.2694124 3.32951263,45.5286226 3.32951263,44.6000377 L3.32951263,37.7445233 L56.6607064,37.7445233 L56.6607064,44.6000377 L56.6607064,44.6000377 Z M56.6607064,34.4057739 L3.32951263,34.4057739 L3.32951263,4.99834463 C3.32951263,4.07969195 4.07042318,3.32896995 4.99915945,3.32896995 L54.9909067,3.32896995 C55.9097092,3.32896995 56.6605535,4.06975974 56.6605535,4.99834463 L56.6605535,34.4155533 L56.6605535,34.4155533 L56.6605535,34.4057739 L56.6607064,34.4057739 Z" id="Shape"></path>
                        <path d="M29.4827586,8.27586207 C24.057608,8.27586207 19.6551724,12.6804585 19.6551724,18.1082719 C19.6551724,23.5360854 24.057608,27.9310345 29.4827586,27.9310345 C34.9079092,27.9310345 39.3103448,23.5264381 39.3103448,18.0986246 C39.3103448,12.6708112 34.9079092,8.27586207 29.4827586,8.27586207 Z M29.4827586,24.9394664 C27.9925297,24.9394664 26.5607588,24.4619249 25.3918986,23.5751268 L29.5800883,20.2522341 L34.2259988,23.0002079 C32.9793954,24.2475739 31.2847138,24.9394664 29.4827586,24.9394664 Z M27.8075129,11.49173 L27.8075129,17.4944623 L23.3173901,21.0513021 C22.8888985,20.1450586 22.6648594,19.151085 22.6648594,18.11807 C22.6647087,14.9217981 24.8464907,12.2323112 27.8075129,11.49173 Z M35.9696465,20.2229907 L31.0899037,17.3385981 L31.0899037,11.4624866 C34.0800043,12.1836224 36.3008085,14.8829075 36.3008085,18.0986246 C36.3008085,18.8294078 36.2033282,19.5407456 35.9696465,20.2229907 Z" id="Shape"></path>
                    </g>
                </g>
                <g id="Group-8" transform="translate(0.000000, 152.000000)">
                    <g id="Group-4" transform="translate(108.000000, 5.000000)" font-weight="normal" letter-spacing="2">
                        <text id="资金结算" font-family="PingFangSC-Regular, PingFang SC" font-size="18">
                            <tspan x="0" y="19">资金结</tspan>
                            <tspan x="60" y="19">算</tspan>
                        </text>
                        <text id="CAPITAL-SETTLEMENT" font-family="MicrosoftYaHei, Microsoft YaHei" font-size="14">
                            <tspan x="0" y="47">CAPITAL SETTLEMEN</tspan>
                            <tspan x="173.74707" y="47">T</tspan>
                        </text>
                    </g>
                    <g id="Group-3" fill-rule="nonzero">
                        <path d="M58.3498445,0 L1.66992471,0 C0.750969348,0 0,0.742254783 0,1.67267605 L0,18.1128233 C0,19.0332928 0.741033869,19.7854994 1.66992471,19.7854994 L13.1718464,19.7854994 L13.1718464,27.139456 C12.213302,28.030223 11.3733719,29.079454 10.6817097,30.2770441 L5.82005066,38.6604812 C5.10851752,39.8778219 4.95046698,41.3624846 5.38533524,42.7085869 L10.5433773,58.8419111 C10.7706705,59.5249141 11.4030255,60 12.1243413,60 L31.897167,60 C32.2430745,60 32.5790466,59.8911421 32.8654941,59.6931769 C33.4484774,59.2774958 38.1224324,55.4768084 34.1600105,43.3915899 L40.3754932,43.3915899 C43.1323594,43.3915899 45.3754848,41.1447688 45.3754848,38.3833605 L45.3754848,19.7755475 L58.3299735,19.7755475 C59.2489289,19.7755475 59.9998982,19.0332928 59.9998982,18.1028715 L59.9998982,1.6627242 C60.0099866,0.742254783 59.2687998,0 58.3498445,0 Z M31.2056577,56.6644466 L13.3597034,56.6644466 L8.55735151,41.6892114 C8.41901907,41.2438279 8.45860813,40.7587902 8.69568394,40.3431091 L13.1719993,32.6327232 L13.1719993,38.3931593 C13.1719993,40.8973505 15.029781,42.9757558 17.4210215,43.3419838 L17.4210215,46.0638909 C17.4210215,46.9843603 18.1620553,47.7365669 19.0909462,47.7365669 C20.019837,47.7365669 20.7608709,46.9943121 20.7608709,46.0638909 L20.7608709,38.3140038 C20.7608709,37.0173545 21.8083761,35.9583247 23.1126752,35.9583247 C24.4169743,35.9583247 25.4644794,37.0173545 25.4644794,38.3140038 L25.4644794,46.0540921 C25.4644794,46.9745615 26.2055133,47.7267682 27.1344042,47.7267682 C28.0533595,47.7267682 28.8043289,46.9845134 28.8043289,46.0540921 L28.8043289,43.4015418 L30.632457,43.4015418 C33.7451661,52.0916489 31.9367561,55.6746205 31.2056577,56.6644466 Z M42.0553534,38.3833605 C42.0553534,39.3038299 41.3143196,40.0560366 40.3854287,40.0560366 L28.8142644,40.0560366 L28.8142644,38.304205 C28.8142644,35.1566651 26.2648205,32.6031739 23.1226107,32.6031739 C19.9804008,32.6031739 17.430957,35.1568182 17.430957,38.304205 L17.430957,39.8680232 C16.8874098,39.6008543 16.5120016,39.0366611 16.5120016,38.3734087 L16.5120016,11.5505745 L42.0555063,11.5505745 L42.0553534,38.3833605 L42.0553534,38.3833605 Z M56.6799198,16.4399942 L45.3854202,16.4399942 L45.3854202,11.5505745 L50.3656937,11.5505745 C51.284649,11.5505745 52.0356184,10.8083197 52.0356184,9.87789848 C52.0356184,8.95742905 51.2945845,8.20522242 50.3656937,8.20522242 L9.65422837,8.20522242 C8.73527301,8.20522242 7.98430366,8.94747721 7.98430366,9.87789848 C7.98430366,10.7983679 8.72533753,11.5505745 9.65422837,11.5505745 L13.1719993,11.5505745 L13.1719993,16.4399942 L3.34000228,16.4399942 L3.34000228,3.33540026 L56.6800726,3.33540026 L56.6799198,16.4399942 L56.6799198,16.4399942 Z" id="Shape"></path>
                        <path d="M20.6915061,22.4045821 L21.2921425,22.4045821 L21.2921425,22.4529203 C21.2921425,24.9585731 23.3942925,27 25.9968954,27 C28.5894335,27 30.7016483,24.9683006 30.7016483,22.4529203 L30.7016483,20.5566576 C30.7016483,19.8504415 31.3022847,19.2892399 32.0130146,19.2892399 C32.7437192,19.2892399 33.3243808,19.8697468 33.3243808,20.5566576 L33.3243808,25.3553052 C33.3243808,26.2550236 34.0750602,26.9902725 35.0160417,26.9902725 C35.9570233,26.9902725 36.7077027,26.2647511 36.7077027,25.3553052 L36.7077027,22.4045821 L37.3083391,22.4045821 C38.2392558,22.4045821 39,21.6790607 39,20.7696148 C39,19.8698965 38.2493206,19.1346476 37.3083391,19.1346476 L36.467541,19.1346476 C35.8469298,17.3157558 34.085125,16.0097275 32.0031046,16.0097275 C29.4105665,16.0097275 27.2983517,18.0414269 27.2983517,20.5568072 L27.2983517,22.433615 C27.2983517,23.139831 26.6977153,23.7010326 25.9869854,23.7010326 C25.2562808,23.7010326 24.6756192,23.1205257 24.6756192,22.433615 L24.6756192,17.6349673 C24.6756192,16.7352489 23.9249398,16 22.9839583,16 C22.0429767,16 21.2922973,16.7255214 21.2922973,17.6349673 L21.2922973,19.1249201 L20.6916609,19.1249201 C19.7607442,19.1249201 19,19.8504415 19,20.7598874 C19,21.6693332 19.7605893,22.4045821 20.6915061,22.4045821 Z" id="Shape"></path>
                    </g>
                </g>
            </g>
        </g>
    </g>
</svg>