<?xml version="1.0" encoding="UTF-8"?>
<svg width="991px" height="794px" viewBox="0 0 991 794" version="1.1" xmlns="http://www.w3.org/2000/svg" xmlns:xlink="http://www.w3.org/1999/xlink">
    <!-- Generator: Sketch 52.6 (67491) - http://www.bohemiancoding.com/sketch -->
    <title>map</title>
    <desc>Created with Sketch.</desc>
    <defs>
        <path d="M568.563041,694.872882 C569.471723,694.812055 570.57022,694.516031 571.248703,693.518471 C572.60163,691.519296 572.666247,690.963744 574.047445,691.588233 C575.428642,692.208667 576.846187,692.245163 576.935036,690.882642 C577.023885,689.520121 575.941543,689.520121 575.400372,688.1576 C574.859201,686.791024 575.400372,685.882677 576.305016,685.610984 C577.205621,685.339291 577.29447,685.610984 578.017378,687.520946 C578.740285,689.426853 579.010871,690.610949 580.81612,691.247603 C582.621369,691.884257 582.891955,691.884257 584.786053,692.427643 C586.68419,692.975085 587.948268,692.881817 587.225361,694.244338 C586.502453,695.610914 586.502453,696.519261 588.214815,696.519261 C589.931215,696.519261 592.00705,696.243513 593.452865,695.700126 C594.894641,695.15674 595.617549,695.063472 595.435812,693.518471 C595.258114,691.97347 595.076378,690.882642 596.069871,690.882642 C597.059325,690.882642 597.422798,691.790989 598.416291,693.15351 C599.409784,694.520086 599.498633,694.97426 601.667355,695.15674 C600.128652,697.970994 599.587482,698.153475 599.498633,701.065052 C599.409784,703.972574 599.498633,706.425923 599.769218,708.060137 C600.039803,709.698406 600.85156,710.059312 601.845053,710.059312 C601.392731,712.788408 601.303882,714.061717 603.290868,714.876796 C605.273815,715.695931 606.267308,715.785143 605.996722,718.060066 C605.726137,720.330934 605.637288,721.51503 607.801972,720.785108 C609.970694,720.059241 610.237241,719.605068 612.04249,719.876761 C613.847739,720.148454 614.481798,719.69428 615.923574,717.512625 C617.369389,715.33097 617.28054,715.152544 616.016462,714.240142 C614.752383,713.331795 614.481798,713.331795 614.392949,711.425888 C614.300061,709.515925 614.211212,707.699231 612.224226,707.970924 C610.237241,708.242617 609.425484,708.060137 609.700108,706.969309 C609.970694,705.882536 610.059543,705.245882 609.336635,703.972574 C612.04249,705.606788 612.676548,705.335095 614.029476,705.241827 C613.940627,702.245092 613.75889,702.605998 613.217719,700.517611 C612.676548,698.425168 613.12887,696.1543 614.300061,698.064262 C615.475291,699.970169 616.828218,701.880132 618.815204,699.061822 C620.798151,696.243513 620.349867,695.335165 622.785137,695.428433 C625.220406,695.517646 627.300279,695.335165 630.18787,694.426818 C633.075461,693.518471 634.428389,693.157565 636.68596,692.15595 C638.939493,691.154335 640.025873,690.97591 641.467649,690.700161 C642.913464,690.428468 643.995806,690.700161 644.989299,688.700987 C645.982792,686.701812 646.164528,686.15437 648.959232,686.519331 C651.757974,686.884292 653.292638,686.608544 655.727907,684.885117 C658.167215,683.157635 659.520142,681.701847 660.513635,681.340941 C662.407733,684.520156 663.490075,683.701022 664.483568,683.157635 C665.477061,682.610194 666.107081,682.610194 665.206475,680.7935 C664.301831,678.976805 664.301831,678.976805 665.206475,677.066843 C667.734632,679.159286 669.269296,679.613459 670.169901,678.250938 C671.070507,676.884362 672.334585,676.612669 673.420965,677.79271 C674.503307,678.976805 675.674498,677.431804 675.856234,675.521842 C676.037971,673.611879 675.763347,672.521052 675.585649,670.79357 C675.403913,669.070143 674.862742,666.79522 675.674498,666.251834 C676.490293,665.704392 675.403913,664.159391 674.321571,662.160216 C673.239229,660.161041 672.156887,659.252694 672.609209,658.161866 C673.057492,657.071039 674.414458,657.796905 675.226215,659.524387 C676.037971,661.251869 677.932069,663.344312 679.014411,665.432699 C680.096753,667.525142 680.460226,668.161796 681.902002,667.979316 C682.354324,670.432664 681.813153,671.612704 683.618402,671.612704 C685.423652,671.612704 685.694237,671.158531 687.588335,672.342626 C689.482434,673.522667 691.198834,673.068493 690.568814,670.521877 C689.934756,667.979316 689.397623,666.888488 690.387078,666.251834 C693.638142,668.61597 694.631635,668.068528 695.713976,667.431874 C696.796318,666.79522 696.343996,665.704392 695.621089,664.435139 C694.90222,663.161831 694.809333,662.707658 696.885167,661.795255 C698.961002,660.886908 699.865646,660.615215 699.502173,662.707658 C699.142739,664.796045 699.502173,665.250219 701.396271,664.613565 C703.294408,663.980966 704.287901,662.707658 705.911414,660.615215 C707.534926,658.526827 709.881347,656.251904 709.251327,658.526827 C708.621307,660.797695 708.257834,661.341082 710.422518,661.888523 C712.59124,662.431909 715.749416,662.253484 714.755924,660.432734 C713.762431,658.61604 713.402996,657.436 714.667075,657.436 C715.931153,657.436 717.106382,657.890173 718.637008,658.526827 C720.171671,659.163481 721.976921,658.709308 725.046248,657.071039 C728.115576,655.432769 732.715529,654.070249 733.801909,651.527687 C734.884251,648.981071 734.884251,647.983511 733.620173,647.071109 C732.356094,646.162762 731.99666,644.61776 733.71306,644.61776 C735.425422,644.61776 737.141822,645.165202 737.590106,642.618585 C738.042428,640.071969 737.682993,639.893544 739.217657,639.43937 C740.752321,638.985197 742.55757,639.800276 744.722254,639.893544 C746.886937,639.982756 747.969279,639.711063 748.962772,638.713503 C749.956265,637.711888 749.68568,637.164447 748.873923,635.25854 C748.062167,633.348578 747.157523,631.986057 748.062167,631.349403 C748.962772,630.712749 749.956265,630.530268 750.408587,632.711924 C753.114442,631.26019 754.830842,629.43944 756.276657,627.351053 C757.718433,625.25861 758.081906,624.715224 760.064853,623.624396 C762.051839,622.533568 761.692405,620.534394 759.07136,620.169433 C756.454355,619.804472 754.471408,619.897739 754.741993,618.713644 C755.012579,617.533604 756.183769,617.898565 758.259604,618.352738 C760.335439,618.806912 761.236044,619.443566 762.322425,617.444391 C763.404766,615.441161 764.668845,613.806947 767.28585,614.804507 C769.902856,615.806122 770.985198,615.351948 772.249276,613.170293 C773.513355,610.988637 774.054526,610.716944 771.619256,610.262771 C769.179949,609.808597 768.820514,608.263596 771.259822,607.991903 C773.695091,607.716154 775.407453,608.352808 776.312097,606.442846 C777.212702,604.536939 776.946155,604.897845 775.859775,603.628592 C774.777433,602.355284 774.143375,601.353669 774.054526,600.080361 C776.764419,601.71863 777.212702,602.172803 779.288537,601.171188 C781.364372,600.173628 781.816694,600.445321 782.269016,599.536974 C782.721338,598.628627 781.816694,598.263666 780.28203,597.444532 C778.747366,596.629452 778.658517,595.810318 779.563161,594.358584 C780.463766,592.902795 781.004937,591.7187 783.169621,593.811143 C785.338343,595.903585 785.786627,596.264491 786.961856,596.629452 C788.137085,596.990358 788.767105,595.356144 787.232441,593.446182 C785.697778,591.536219 785.063719,591.086101 785.968363,589.719525 C786.873007,588.357004 787.143592,588.628697 786.961856,586.905271 C786.780119,585.177789 786.420685,584.630348 787.32129,583.53952 C788.225934,582.448692 788.49652,580.53873 786.061251,581.540345 C783.621943,582.537905 782.446713,581.994519 783.803679,580.084556 C785.156607,578.178649 786.509534,576.54038 788.585369,575.996994 C790.661203,575.449552 791.295262,574.541205 790.390618,573.722071 C789.490013,572.906991 788.767105,573.089472 788.044198,571.36199 C787.32129,569.634508 787.143592,568.908641 785.427192,568.908641 C783.71483,568.908641 782.087279,566.451238 783.262508,566.268757 C784.433699,566.090332 785.067758,567.087892 785.879514,564.999504 C787.595914,566.816199 788.948842,567.542065 789.397125,566.090332 C791.654696,567.087892 791.925282,567.724546 790.390618,568.3612 C790.754091,570.453643 792.829926,569.545295 793.641682,567.724546 C794.453439,565.907851 794.36459,564.999504 793.371097,564.269582 C792.377604,563.543716 791.92932,563.272022 793.730531,561.816234 C795.53578,560.3645 797.429879,558.637018 797.975088,557.452923 C798.516259,556.272883 798.063937,555.725441 795.899253,555.182055 C793.730531,554.634614 793.007624,553.547841 794.542287,553.18288 C796.076951,552.817919 797.159293,553.547841 798.423372,554.273708 C799.68745,554.999574 800.046884,554.634614 800.592094,552.546226 C801.133265,550.453783 802.03387,547.457048 802.126758,545.457874 C802.215607,543.454643 802.66389,542.367871 803.297948,540.912082 C803.932007,539.456294 804.109705,538.81964 802.849665,538.093773 C801.585587,537.367906 800.680943,535.733692 802.849665,535.733692 C805.014349,535.733692 806.456125,535.912117 807.27192,533.276288 C808.083676,530.640459 807.809052,530.186286 807.720203,528.912978 C811.423589,530.82294 812.505931,531.8205 813.047102,530.275498 C813.588273,528.734552 813.677122,527.461244 815.304673,528.187111 C816.928186,528.912978 818.46285,526.82459 816.023542,524.188761 C813.588273,521.552932 811.601287,520.097143 813.228839,519.553757 C814.852351,519.006316 816.387015,518.64541 816.568752,516.281274 C816.74645,513.917138 815.934693,513.462965 815.393522,512.189656 C811.601287,511.64627 811.060116,511.098829 811.330702,510.008001 C811.601287,508.917173 812.053609,507.007211 813.317688,508.102094 C814.581766,509.192922 815.575259,509.918788 816.11643,507.919613 C818.733435,508.734693 820.538685,508.734693 820.356948,506.192132 C820.175212,503.645515 819.815777,502.011301 819.634041,500.555513 C819.452304,499.103779 817.921679,497.830471 816.835299,500.012126 C815.752957,502.193782 816.205279,502.647955 813.228839,503.645515 C812.776517,501.64634 813.588273,501.46386 814.581766,500.012126 C815.57122,498.556338 816.568752,497.011337 818.733435,495.648816 C820.898119,494.286295 822.521632,492.741294 820.627534,492.741294 C818.733435,492.741294 813.765971,493.649641 810.700682,491.103024 C807.631354,488.556408 806.18554,485.377193 802.938514,487.558848 C799.68745,489.740504 799.598601,490.194677 797.252181,491.374718 C794.90576,492.558813 794.812873,493.738853 793.278209,491.374718 C791.743545,489.014637 792.195867,487.648061 788.948842,489.829716 C785.697778,492.011372 784.526587,491.922159 785.067758,490.648851 C785.608929,489.375543 788.133047,487.104675 790.84294,487.011407 C793.552833,486.922194 795.53578,486.922194 796.71101,485.1055 C797.882201,483.28475 799.780337,481.378843 802.397343,478.743014 C805.014349,476.107185 807.179032,475.10557 809.796038,474.740609 C812.413044,474.379703 813.047102,472.563009 812.776517,471.289701 C812.505931,470.016393 810.24836,466.837177 806.096691,464.655522 C801.945021,462.473866 801.763285,462.473866 798.245674,460.292211 C794.724024,458.110556 792.377604,458.199768 790.301769,456.293861 C788.225934,454.383899 787.773612,452.567205 784.704285,454.383899 C781.638996,456.200593 779.563161,456.111381 780.463766,455.109766 C781.364372,454.112206 783.533094,451.56559 786.061251,451.293896 C788.585369,451.022203 788.767105,451.56559 790.84294,453.747245 C792.918775,455.9289 793.459946,456.92646 794.994609,455.109766 C796.529273,453.293071 798.516259,452.656417 802.756777,454.290631 C806.997296,455.9289 807.813091,455.839688 809.077169,455.657207 C810.337209,455.474727 810.430097,454.655592 809.796038,453.475552 C809.166018,452.291456 808.354262,451.111416 803.932007,449.294721 C799.509752,447.473972 797.34103,447.113066 797.975088,445.750545 C798.605108,444.383969 798.693957,443.56889 795.988102,442.295582 C793.278209,441.022274 792.377604,441.387234 790.483506,438.929831 C788.585369,436.476482 788.585369,437.023924 788.585369,435.113961 C788.585369,433.203999 788.314783,431.298092 785.156607,428.025609 C781.99843,424.753126 781.99843,424.481433 781.186674,422.117297 C780.374917,419.753161 777.394439,412.210635 775.682077,409.392326 C773.965677,406.574016 773.065071,405.211495 768.097607,403.577281 C763.134181,401.939012 761.599517,402.303973 759.523682,401.119878 C757.447848,399.939837 757.177262,398.577316 754.741993,398.759797 C752.302685,398.938222 752.573271,398.212356 752.484422,396.395661 C752.395573,394.574912 752.395573,393.123178 753.7485,392.397311 C755.101427,391.667389 755.4649,391.030735 755.372013,389.939908 C755.283164,388.84908 754.830842,388.212426 755.731447,386.760692 C756.636091,385.304904 756.636091,385.122423 756.995526,383.398997 C757.358999,381.671515 757.447848,380.580687 758.800775,380.126513 C760.157741,379.67234 762.051839,379.214111 764.127674,376.306589 C766.203509,373.399067 766.474094,373.309854 767.015265,372.308239 C767.556436,371.306624 768.909363,370.580757 766.562943,369.218237 C764.216523,367.855716 764.127674,367.219062 765.210016,366.399927 C766.292358,365.584848 767.556436,366.039021 768.190494,367.490755 C768.820514,368.946543 769.361685,370.033316 771.43752,368.764063 C773.513355,367.490755 774.143375,367.125794 774.143375,365.309099 C774.143375,363.492405 774.054526,362.401577 774.054526,361.49323 C775.859775,361.764923 776.671531,361.671655 777.757912,360.491615 C778.840254,359.311575 778.658517,358.49244 776.582682,358.30996 C774.506848,358.131534 773.424506,356.128304 775.140906,356.039092 C776.853268,355.945824 776.582682,358.131534 781.004937,355.041532 C785.427192,351.947474 787.143592,350.674166 789.397125,348.674991 C791.654696,346.675816 792.288755,345.584988 793.552833,345.041602 C794.812873,344.494161 795.53578,344.587428 796.169839,346.31491 C796.799859,348.042392 797.704503,348.042392 799.416864,347.405738 C801.133265,346.769084 801.40385,346.404123 801.674436,345.313295 C801.945021,344.222467 802.215607,343.679081 800.862679,343.224908 C802.215607,340.495811 802.126758,339.680731 801.492699,338.585849 C802.849665,336.1325 802.667929,335.041672 801.40385,335.041672 C800.139772,335.041672 800.321508,335.041672 798.516259,335.678326 C796.71101,336.31498 796.440424,336.951635 794.994609,335.678326 C793.552833,334.405018 792.288755,333.950845 791.384111,335.224153 C790.483506,336.497461 789.308276,336.679941 786.602422,337.316595 C783.892528,337.95325 782.810186,338.679116 782.269016,337.405808 C781.727845,336.1325 783.533094,334.587499 780.28203,334.315806 C777.035004,334.044112 777.394439,334.769979 774.506848,333.496671 C771.619256,332.223363 771.259822,331.679977 766.833528,333.768364 C762.411274,335.860807 762.952444,336.408248 762.233576,338.042462 C761.510668,339.676676 761.417781,340.406598 759.160209,341.586638 C756.906677,342.770734 756.183769,343.220852 756.276657,344.404948 C756.365506,345.584988 755.190276,349.039952 752.120949,348.950739 C749.05566,348.857471 748.785074,349.039952 746.886937,349.404913 C744.992839,349.765819 744.992839,350.041567 744.088195,348.950739 C743.18759,347.859911 742.194097,347.766644 740.84117,346.858296 C739.488242,345.949949 738.947072,346.221642 739.577091,343.31412 C740.207111,340.406598 740.659433,337.677501 739.217657,334.315806 C737.771842,330.95411 737.953579,331.319071 736.960086,330.406668 C733.260738,332.860017 731.907811,334.769979 731.273752,332.860017 C730.643733,330.95411 729.286767,330.134975 727.122083,332.499111 C724.957399,334.863247 723.693321,335.95002 723.240999,334.315806 C722.788677,332.681592 722.158657,331.769189 719.448764,329.409108 C716.742909,327.044973 715.478831,325.682452 714.667075,320.864967 C713.855318,316.047483 714.844773,312.499252 716.020002,310.775825 C717.195231,309.048343 719.000481,308.322477 720.623993,309.684997 C722.247506,311.047518 724.141604,312.410039 726.12859,310.865038 C728.115576,309.320036 728.47501,308.959131 730.102562,309.230824 C731.726074,309.502517 735.065988,308.683382 737.501257,305.686648 C739.936526,302.685858 739.936526,302.957551 739.488242,300.504202 C739.035921,298.050854 740.570584,294.324197 743.999346,292.325022 C747.432147,290.325847 748.603338,289.778406 751.40208,287.507538 C754.200822,285.232614 755.190276,284.778441 756.002033,284.417535 C756.817828,284.052574 757.088413,283.326707 757.90017,280.597611 C758.711926,277.872569 759.523682,275.325953 761.417781,273.874219 C763.315917,272.41843 763.586503,271.870989 763.315917,270.508468 C763.045332,269.145947 764.668845,266.420906 767.91587,266.327638 C771.166934,266.238425 774.143375,266.781812 774.325111,264.510943 C774.506848,262.240075 775.048018,262.146808 776.041511,262.418501 C777.035004,262.694249 777.30559,262.783462 777.846761,265.240865 C778.387932,267.694214 777.846761,266.875079 780.463766,269.239215 C783.080772,271.599296 783.080772,271.870989 784.34485,272.783391 C783.892528,275.41922 783.444245,275.601701 782.899035,278.326743 C782.357865,281.051784 781.99843,281.416745 780.100293,283.41592 C778.206195,285.415095 778.476781,284.871709 776.582682,286.688403 C774.688584,288.505098 773.335657,288.963326 774.143375,290.143367 C774.95917,291.323407 775.140906,291.505888 773.695091,292.596715 C772.249276,293.687543 772.071578,294.324197 772.160427,295.321757 C772.249276,296.323372 773.876828,297.685893 775.770926,297.685893 C777.665024,297.685893 778.387932,297.324987 780.645503,296.412585 C779.740859,299.230894 778.117346,300.050029 778.747366,301.323337 C779.381424,302.596645 778.929102,304.324127 776.041511,305.686648 C773.15392,307.049168 770.985198,307.592555 771.348671,309.230824 C771.708105,310.865038 772.431013,312.685787 773.695091,311.590904 C774.95917,310.504132 774.595697,310.228384 777.93561,309.409249 C781.275523,308.59417 781.816694,307.775035 781.004937,306.866688 C780.193181,305.958341 780.734352,303.683417 781.99843,304.7783 C783.262508,305.869128 784.526587,305.686648 786.061251,302.957551 C787.595914,300.232509 787.773612,299.960816 788.407671,298.050854 C789.037691,296.140891 788.137085,296.051679 790.483506,294.778371 C792.829926,293.505062 793.641682,293.050889 794.812873,291.505888 C795.988102,289.960886 795.899253,289.867618 798.964542,288.687578 C802.03387,287.507538 803.027363,287.235845 802.667929,285.780056 C805.914954,284.871709 806.456125,285.054189 808.624847,283.509188 C810.789531,281.964187 811.512438,281.781706 814.218293,281.327532 C816.928186,280.873359 817.380508,281.145052 818.773821,278.967452 C819.892511,275.57737 821.919882,270.73961 823.224346,268.695829 C824.532849,266.652048 825.615191,264.973227 826.487526,264.681259 C826.414832,262.856454 829.678012,261.177634 830.400919,260.447712 C832.791764,259.575861 833.151198,258.987868 833.151198,258.257946 C836.127638,256.506134 836.777851,255.995188 836.559767,254.681329 C836.341683,253.367469 838.15501,252.564555 839.822947,251.834634 C841.486846,251.104712 842.213792,247.528094 843.732301,244.827384 C845.254849,242.126673 845.618322,240.009899 846.268535,237.674149 C846.922787,235.338399 846.995481,232.126743 849.022853,230.812884 C851.054263,229.499024 851.631781,229.134063 853.517802,232.126743 C855.399785,235.119423 854.822267,232.71068 857.213111,234.243516 C859.603956,235.776352 859.676651,232.422767 861.708061,233.732571 C863.735433,235.04643 865.039897,234.827454 866.344361,233.732571 C867.648825,232.637688 868.153649,232.783673 869.603502,233.075641 C871.053356,233.36761 871.344134,233.444657 872.139736,231.68879 C872.939377,229.941032 872.35782,227.163274 870.835272,226.798313 C869.312724,226.433352 871.885305,226.753707 869.130987,224.34091 C866.37667,221.936222 869.623695,219.150354 869.987168,219.730236 C870.350641,220.314174 871.852996,218.69618 874.966748,218.404212 C878.084539,218.116298 880.039216,215.849485 881.416375,214.320704 C882.793534,212.783813 882.28871,211.177985 882.57545,209.280188 C882.773341,207.978494 882.753148,206.940383 883.669908,206.567312 C889.170466,206.218571 889.097771,203.513805 888.447559,199.430298 C887.793307,195.33868 889.025077,196.360571 888.592948,194.612814 C891.488616,193.444939 892.179215,192.512261 892.433646,194.243798 C894.000618,194.912893 895.127385,194.122144 895.636247,196.295689 C895.995681,197.844745 896.77109,198.882857 897.893818,199.458684 C900.086772,199.706046 900.777371,200.32648 900.858142,200.50896 C901.161037,199.308644 896.900325,196.060492 901.197384,194.235687 C905.498481,192.406827 906.298122,189.069462 906.641402,186.526901 C906.988721,183.988395 907.10584,179.945439 905.607523,178.672131 C904.113245,177.402878 903.535727,174.742718 903.535727,173.935749 C903.535727,173.12878 903.535727,168.505941 902.384729,166.194522 C901.233731,163.887158 902.614929,161.231053 896.516659,155.683647 C890.41839,150.140296 895.830099,149.215728 897.324377,148.522302 C898.818655,147.828876 899.969653,144.592889 901.92433,140.78513 C903.883046,136.969261 906.924103,139.033318 909.512839,139.292846 C912.097536,139.552373 915.413217,140.339067 916.398633,140.339067 C917.38001,140.339067 919.968746,140.910839 920.631074,140.383673 C921.713416,139.398279 922.408053,139.398279 921.713416,134.661897 C921.026856,129.925515 922.290934,128.652207 923.086536,127.305906 C924.088106,125.627086 922.844221,124.134801 922.517095,123.149407 C922.129391,121.985587 922.9048,120.692003 923.870022,119.653892 C924.839284,118.619836 924.516197,115.833968 924.063875,115.059439 C923.615591,114.280856 923.93464,113.567155 924.386962,112.662863 C924.839284,111.754515 925.610654,110.590695 925.162371,110.201404 C924.968519,107.41959 924.645432,107.675063 923.680209,107.160063 C922.710947,106.641007 922.194008,104.633722 923.615591,103.40502 C925.033136,102.172263 923.550974,101.332853 923.034035,99.7797414 C922.517095,98.2225748 922.840182,94.2080044 923.421739,93.1090665 C922.452478,90.323198 922.258625,89.1593781 922.129391,88.255086 C922.000156,87.3467388 922.9048,85.9233911 924.19311,84.8203981 C925.485458,83.7214602 926.256829,80.3557093 926.903003,78.7985426 C927.545138,77.2454311 924.839284,75.6274376 923.482318,74.139208 C922.129391,72.6469232 921.547834,71.4831034 922.323243,70.8342839 C923.098652,70.1895196 922.517095,68.9567627 922.194008,67.7280608 C921.984001,66.9210916 924.011373,65.5747913 925.344107,64.1838846 C926.046822,63.4580179 926.620302,62.5375053 926.862617,62.1198277 C924.104261,62.8456945 921.741686,64.1717192 920.255485,64.3906958 C918.773323,64.6137275 917.069039,64.6137275 916.410749,65.4936889 C915.74842,66.3777054 915.199172,67.2049501 913.882592,67.7037301 C912.561973,68.1984549 912.174269,69.0256997 911.406937,69.8002279 C910.635566,70.570701 908.438574,72.9470022 907.392579,74.2162553 C906.346585,75.4855083 906.512167,75.9842883 904.973465,76.0370048 C903.434762,76.0937765 900.850065,76.6979897 900.357357,78.2470461 C899.860611,79.7920474 899.533485,80.6760639 898.43095,81.446537 C897.275914,84.483823 896.343,88.2915821 895.297005,88.0158339 C894.251011,87.7400856 892.110559,87.6305973 891.064564,89.5040635 C890.01857,91.3815847 889.852987,91.5478447 887.878117,91.4951281 C884.138384,92.5981212 884.190886,92.7076095 883.476055,92.0993412 C882.761225,91.4951281 882.102935,91.1626082 880.620773,92.2088295 C879.134572,93.259106 876.715458,95.6881238 874.789051,94.1431225 C872.866682,92.5981212 868.525199,89.0620552 868.686743,87.0750457 C868.852325,85.0880361 868.908865,82.88205 868.084993,82.2210652 C867.257082,81.5560253 866.873416,80.7287805 866.820915,80.0677957 C866.764374,79.4068108 865.665878,78.5755109 864.563343,78.2997627 C863.464847,78.0240144 862.640975,77.1399979 862.584435,75.5949966 C862.531933,74.0499953 863.024641,71.4020009 859.838194,72.4482223 C856.647709,73.4984988 855.109006,73.5512153 854.450716,72.1197574 C853.788388,70.6842444 853.021056,68.1984549 851.482354,68.1984549 C848.841116,66.5439653 848.017244,66.3249888 847.302414,66.2114454 C845.323505,63.729711 844.443093,63.3404193 843.784803,64.3379792 C840.977984,65.8829805 841.143566,65.8262088 840.70336,66.2114454 C838.999075,65.6072323 838.946573,65.1084523 837.133247,65.2179406 C834.657592,63.9486876 833.611597,63.397191 832.456561,64.0054593 C831.305563,64.6137275 827.618331,66.9859736 825.639423,66.6534536 C823.660514,66.3249888 823.38589,66.4344771 822.618558,66.7102253 C821.847188,66.9859736 820.583109,66.2682171 820.033861,65.8829805 C819.484613,65.4936889 815.252172,61.629158 815.252172,60.7491967 C815.252172,59.8651802 816.294128,54.3461598 814.424261,54.3988763 C812.558433,54.455648 811.346856,54.0136398 811.015692,53.186395 C810.688566,52.3591502 810.413942,50.315369 809.808154,49.4313525 C809.202365,48.5513911 808.762159,47.1158781 808.762159,46.3981216 C808.762159,45.6803651 806.290543,43.7501272 805.575713,43.308119 C804.860882,42.8661107 799.748029,38.8920916 799.966112,37.3430352 C800.188235,35.7980339 800.462859,34.3098043 799.307822,35.0275608 C797.272374,33.0932678 796.723126,32.3755113 796.888708,31.6618099 C795.459047,30.3357852 794.194969,28.9529887 795.127883,28.1825156 C796.060797,27.4079874 794.138429,26.3617661 793.148974,25.9765295 C792.15952,25.5872379 788.585369,22.2742036 789.300199,21.1712105 C787.595914,19.1314844 786.440878,18.6327044 787.26475,17.8622313 C786.497418,15.5954184 783.472515,12.0634075 782.151896,12.1769509 C780.835316,12.2864392 778.634285,11.678171 779.898364,10.3521463 C781.162442,9.03017664 781.328024,7.53789191 780.011444,7.59466361 C777.370207,6.21592229 776.986541,6.10237889 776.602875,6.49167056 C775.007633,4.72363757 774.292802,3.78690449 773.35585,3.89639277 C770.553069,2.40410805 766.651792,2.24190319 765.823881,2.29461977 C763.735931,4.17214104 763.626889,4.61414929 761.922604,4.3911176 C760.21832,4.17214104 757.140915,3.83962107 756.809751,3.01237628 C756.478586,2.18513149 755.763756,1.57686326 754.66526,1.63363496 C751.640357,-0.020854626 749.552406,-0.24388631 748.231788,0.198121937 C746.911169,0.640130184 745.372467,0.806390167 745.263425,0.254893638 C740.590777,0.583358482 736.6895,1.19162671 735.97467,1.79989494 C735.255801,2.40410805 732.069355,3.39761283 730.30853,3.45438453 C728.551744,3.51115623 727.727871,4.28162932 726.350713,4.78040927 C724.977592,5.2751341 721.185357,8.42190841 720.248405,8.42190841 C719.315491,8.42190841 718.103914,8.97340493 717.336582,9.69116145 C714.311679,9.85742143 712.938559,10.1899414 712.385272,10.7414379 C711.836024,11.2929345 708.374953,17.4202231 707.825705,18.4137279 C707.276457,19.4072326 706.888752,20.8427457 706.06488,21.6132188 C705.241008,22.387747 704.142512,23.2149918 704.304055,24.2084965 C704.469637,25.2020013 704.029431,28.0730274 705.241008,27.5742474 C706.448546,27.0795226 708.209371,25.4777496 709.582491,25.7534978 C710.95965,26.0292461 714.037055,25.6967261 713.378765,27.5215308 C712.716436,29.3422804 710.628486,30.2262969 712.607394,30.7210217 C714.586303,31.2157465 715.850381,32.598543 715.301133,35.1370491 C714.751885,37.6755551 712.938559,41.4833143 711.67448,42.5903624 C710.406363,43.6933555 707.934747,47.3348546 707.494541,48.5513911 C707.054334,49.7638724 706.505086,51.6413937 706.012378,52.4686385 C705.515632,53.2958833 705.681214,54.455648 706.012378,55.5586411 C706.339504,56.6656893 706.12142,59.9219519 705.241008,60.9154567 C704.360596,61.9049063 703.593264,63.2877027 703.754807,64.5569558 C703.920389,65.8262088 703.702306,67.5374701 703.262099,68.2552266 C702.821893,68.9729831 702.272645,71.8967258 702.163603,72.7239706 C702.050523,73.5512153 701.008567,74.9907835 702.765353,75.4855083 C704.526178,75.9842883 704.304055,77.2494862 704.304055,78.8512592 C704.304055,80.4530322 702.107063,83.1050817 700.45528,83.2672865 C698.807536,83.4335465 697.761541,84.317563 696.885167,84.9258312 C696.004755,85.5300444 691.219027,90.5543399 690.782859,91.3288681 C690.439579,91.9330813 690.059952,92.2980422 688.686832,93.1739484 C687.673146,93.725445 686.324257,94.0457996 685.730585,94.3458786 C683.198389,95.6151316 677.677638,93.6524528 672.843447,92.0344593 C668.013295,90.4164658 668.126375,94.6905639 668.126375,94.6905639 C668.126375,94.6905639 662.835824,111.904555 662.605624,114.443061 C662.375424,116.985622 660.877108,120.221609 661.224427,122.646572 C661.567707,125.071534 658.344913,126.052874 657.658353,127.788466 C656.963715,129.520003 658.635691,131.255595 661.858485,134.718669 C664.374526,137.42749 665.477061,134.876818 667.916369,133.477801 C674.685044,132.119336 678.481317,131.770595 683.315508,134.430755 C688.145661,137.08686 688.723179,132.005792 690.447656,129.576774 C692.176173,127.151812 692.866771,126.92067 695.742247,125.882559 C698.617722,124.840392 700.895486,126.973386 700.895486,126.973386 C700.895486,126.973386 705.115812,131.511067 707.373383,131.588115 C709.634993,131.665162 710.503289,134.515912 711.181772,135.27422 C711.860255,136.028473 714.30764,136.028473 715.660567,136.482646 C716.379436,136.721899 718.1443,137.541033 719.662809,139.130641 C720.995544,140.529658 721.843647,142.808636 721.916342,143.161432 C723.971984,145.302536 722.715982,150.205178 721.888072,151.186517 C721.056122,152.171912 721.762875,152.768014 719.125677,152.918054 C716.488478,153.068093 713.928013,152.841007 712.797208,152.61392 C711.670442,152.386833 709.033243,151.709628 708.431493,152.163801 C707.825705,152.61392 706.921061,153.372228 704.06174,153.522267 C701.194342,153.676362 697.127483,155.261914 696.150144,156.701482 C695.168767,158.136995 693.512946,158.29109 692.15598,157.909909 C690.799014,157.532782 689.29262,157.909909 689.29262,159.499516 C689.29262,161.089124 689.442048,162.674676 687.257171,163.12885 C685.076333,163.583024 681.910079,162.978811 680.928702,164.414324 C679.951364,165.853892 674.979861,170.014446 674.826394,173.039567 C674.676966,176.064688 674.527539,176.81894 673.243267,178.485595 C671.963035,180.148195 668.348498,183.627489 666.765371,184.458789 C665.186282,185.294144 657.197953,188.015131 654.710183,186.65261 C652.22645,185.294144 650.267735,187.710997 649.964841,188.846431 C649.661946,189.981865 644.767176,197.240532 643.260783,198.225927 C641.754389,199.207266 637.986386,201.855261 635.498615,201.855261 C633.014883,201.855261 622.389355,200.950969 620.733533,199.815535 C619.077712,198.6801 618.471924,197.698761 616.214352,197.698761 C613.952743,197.698761 611.392277,196.940453 610.184739,200.192661 C608.98124,203.444868 606.194613,209.949283 606.267308,210.480504 C606.344041,211.00767 605.742291,217.212006 609.280095,218.874606 C612.821938,220.541261 615.459136,223.189255 614.481798,225.155989 C613.500421,227.122723 610.184739,232.114578 607.773701,232.18757 C605.362664,232.264617 600.241733,236.04399 599.337089,237.406511 C598.432445,238.769032 595.342925,245.727621 592.180709,247.771402 C589.014456,249.811128 584.345847,251.250696 583.590631,251.777862 C582.839453,252.309083 580.274949,253.594556 579.596466,254.575896 C578.922022,255.56129 567.545317,256.319598 564.30233,256.469637 C561.06742,256.619677 550.365159,257.073851 548.483177,256.996803 C546.601194,256.923811 544.262851,256.39259 543.584368,257.073851 C542.905885,257.755111 542.304135,258.286332 539.893098,259.190624 C537.48206,260.098971 514.579222,268.042954 510.815257,271.218114 C507.047254,274.39733 506.97052,273.411935 505.690288,273.261896 C504.410055,273.107801 499.361819,273.034809 499.361819,271.749335 C499.361819,270.463862 499.361819,268.497128 497.403103,268.874254 C495.444387,269.251381 491.074634,270.91398 485.424648,268.951302 C479.770624,266.980512 473.898515,262.596926 471.786333,262.369839 C469.67819,262.142752 462.218916,261.688579 461.314272,260.780232 C460.409628,259.871884 457.473574,255.184164 455.664286,254.88003 C453.854998,254.575896 435.321913,248.148528 433.512625,249.283962 C431.707376,250.419396 431.028893,250.342349 428.767283,250.569436 C426.509712,250.796522 421.986492,251.70487 419.955082,251.627822 C417.919633,251.550775 397.730727,247.467268 394.261579,246.55892 C390.79647,245.650573 388.987182,244.515139 382.436591,244.515139 C375.877922,244.515139 377.388354,244.065021 374.82385,244.065021 C372.263385,244.065021 371.960491,243.910926 371.512207,242.248326 C371.055847,240.585726 370.155241,238.237811 368.119793,236.575211 C366.084344,234.912611 366.011649,233.323004 365.409899,230.675009 C364.804111,228.027015 362.017485,217.66618 360.88668,216.757832 C359.755875,215.849485 357.647731,214.413972 358.402947,212.974404 C359.154125,211.538891 359.529714,209.572157 357.344837,209.949283 C355.159961,210.32641 350.341924,208.813849 349.211119,207.151249 C348.080314,205.48865 344.841366,201.782268 343.181506,200.569787 C341.525684,199.361361 331.655373,191.190291 328.190263,190.890212 C324.725154,190.586078 319.147863,191.344386 318.473418,189.831825 C317.794935,188.319265 316.135075,188.319265 315.533325,188.319265 C314.931576,188.319265 306.943247,187.33387 306.192069,186.352531 C305.436853,185.367136 305.137997,185.063002 303.175243,185.14005 C300.46535,183.81808 299.976681,183.627489 299.459741,183.542332 C298.938763,183.457174 296.660999,183.846466 296.354066,183.518001 C295.740201,182.865127 296.075404,181.936504 294.908252,180.034652 C293.874373,178.351776 293.066655,176.380987 293.381665,174.929254 C294.060148,171.827086 295.417114,169.860352 297.375829,167.820626 C299.334545,165.776844 299.786867,164.868497 299.637439,162.44759 C299.483973,160.030737 298.882223,158.059948 300.46535,156.624435 C302.048477,155.188922 301.89501,150.497146 301.446727,148.60746 C300.994405,146.713718 296.923507,139.455051 296.923507,138.09253 C296.923507,136.730009 296.77408,130.983902 295.643275,129.92146 C294.51247,128.863073 293.30897,127.350513 293.30897,126.292126 C290.518305,126.369173 288.789789,127.350513 287.808412,124.479487 C286.831074,121.604406 285.474108,121.377319 284.117142,121.223224 C282.760176,121.073185 279.747388,120.468971 278.766011,119.483577 C277.788673,118.502238 272.740437,115.854243 272.966598,113.433336 C273.192759,111.012428 272.7889,111.07731 272.263883,110.546089 C271.734828,110.018923 264.982307,106.24766 266.638129,104.812147 C268.29395,103.372579 267.6922,101.357184 266.185807,100.22175 C264.679413,99.0903708 264.840957,97.6021412 266.03234,96.4139906 C267.227763,95.2298951 267.490271,93.5672952 266.399852,92.8089875 C265.305394,92.0547349 262.732813,92.7359953 261.892787,92.4805227 C261.05276,92.2291051 259.70791,92.257491 258.641722,91.7384354 C257.571496,91.223435 251.49342,89.5324493 251.343992,93.0117436 C251.194564,96.4910379 252.850386,96.6410774 251.570153,98.0806455 C250.28992,99.5161585 247.273094,102.164153 244.260307,102.314192 C241.24752,102.464232 239.139376,102.922461 237.859144,102.541279 C236.578911,102.164153 231.155086,104.207934 230.39987,108.368489 C229.648692,112.524988 229.345798,120.091845 228.816743,122.358658 C228.291726,124.629526 226.704561,129.884964 221.737096,129.698428 C220.921301,129.665987 218.643537,133.656227 217.314841,133.526463 C216.620204,133.461581 213.983005,129.402404 213.522606,129.27264 C212.363531,128.944175 209.152853,128.25886 207.795887,128.031773 C205.990638,127.731694 200.187186,125.610866 198.151737,123.571139 C196.120326,121.527358 191.67384,117.443851 189.941285,121.073185 C188.208731,124.702518 178.944207,139.000877 177.736669,140.813516 C176.53317,142.630211 172.163417,148.60746 172.765166,149.665847 C173.366916,150.724233 177.284347,158.136995 173.294221,156.851522 C169.300057,155.566048 166.509392,154.811796 165.758214,153.676362 C165.002998,152.540928 163.472373,151.048643 161.513657,151.429824 C159.554942,151.811006 154.534976,152.690967 152.725688,152.163801 C150.9164,151.63258 149.729055,151.072974 149.034417,151.729903 C148.33978,152.390888 143.836753,152.690967 141.122822,152.768014 C138.40889,152.841007 133.437387,153.522267 133.736242,155.566048 C134.039137,157.60983 133.437387,157.378688 135.925158,157.832861 C138.40889,158.29109 139.313534,159.799595 138.788517,162.674676 C138.259462,165.549758 137.201352,168.120705 136.979229,172.81248 C136.753068,177.500201 136.676335,187.410918 136.599602,188.846431 C136.526907,190.285999 136.676335,192.629859 134.568192,193.538206 C133.251612,194.101868 132.666016,194.904782 132.423701,195.83746 C129.960162,198.136714 128.825318,198.055612 127.448159,197.893407 C126.071001,197.731202 125.424826,197.078327 125.008852,199.624944 C124.843269,200.83337 124.75442,202.418923 124.69788,204.430263 C124.548452,209.876291 123.494381,213.582672 121.987987,213.505625 C120.477555,213.428578 114.149086,213.805704 113.24848,214.109838 C112.339798,214.413972 107.521761,215.018185 104.432241,215.622398 C101.34272,216.226611 88.6090491,217.155234 88.2334603,217.134959 C87.8578715,217.118738 85.7295352,220.070867 84.4493024,220.67508 C83.1690697,221.283348 81.2749715,218.237952 80.1441666,219.146299 C79.0174003,220.054646 78.2541069,221.311734 76.6709801,221.920002 C75.0878532,222.524215 74.263981,221.36445 73.4320317,221.003545 C72.6000824,220.642639 72.4627703,221.104923 69.7528771,219.969489 C67.0389453,218.83811 66.1585329,216.83488 62.9195846,218.951653 C59.6806362,221.068426 59.3010089,222.280908 58.6992591,223.793468 C58.0975093,225.306028 53.2754341,230.52497 52.5242565,228.935362 C51.7690404,227.345755 49.660897,227.499849 47.2498593,227.499849 C44.8388217,227.499849 40.4690684,227.572841 41.2969792,225.910242 C42.1248899,224.247642 42.8033729,220.614253 41.220246,220.464213 C39.6371191,220.314174 33.8377053,222.203861 32.7069004,220.6913 C31.5801341,219.17874 30.8249179,218.34744 30.2231682,219.251732 C29.6173798,220.160079 30.9016511,222.735081 29.0923633,222.053821 C27.2830754,221.372561 26.8307534,221.976774 25.4010929,222.507995 C23.9673938,223.03516 20.5790177,224.701815 18.6970352,223.86646 C16.8110142,223.03516 15.6075147,222.126813 14.3272819,223.339295 C13.6043745,224.020555 12.7401165,225.131658 12.0697107,225.922407 C10.6885133,227.03351 11.0883336,228.667724 10.2240755,230.662844 C9.35981749,232.662019 9.3961648,233.720406 5.16776213,233.550091 C0.939359466,233.37572 1.41995155,235.898006 1.41995155,235.898006 C1.41995155,235.898006 4.13388335,243.54191 3.04750291,244.089351 C2.26805524,244.482698 0.717237072,245.792502 0.107410135,247.155023 C-0.126828026,247.686244 0.0710628345,249.117702 0.236644983,249.563765 C0.588002224,250.013884 1.68245984,252.086051 1.96112248,252.390185 C2.63960543,253.136328 4.00060991,253.841919 6.43991766,253.314753 C8.87518682,252.787587 9.83233241,252.438847 11.2256456,253.931131 C12.6189588,255.423416 12.9662775,256.299322 14.1859313,257.264441 C15.4055852,258.22956 15.4055852,258.841884 14.4484396,260.334168 C13.491294,261.826453 12.5341484,262.965942 12.4452995,264.985393 C12.3564505,267.004843 12.2716402,267.617167 12.8814671,268.407915 C13.491294,269.194609 14.1859313,270.686894 13.6649533,272.706344 C13.1399368,274.721739 13.5761044,274.287841 11.9243215,274.900165 C10.8904427,275.281346 9.77983075,275.56115 9.84848676,276.887174 C9.96156725,279.105326 9.88079547,279.429736 10.6037029,279.600051 C11.3266103,279.766311 12.8855057,280.382689 12.8855057,281.449186 C12.8855057,282.515683 12.3847206,283.74844 11.4962311,284.028243 C10.6037029,284.308047 7.40110184,284.458086 7.46975785,284.462141 C3.78252611,284.117456 3.55232654,283.999858 2.57094941,284.454031 C1.59361088,284.908205 1.5491864,288.282066 4.33985139,289.644587 C7.12647779,291.003052 13.2691716,294.287701 13.196477,295.954356 C13.1197438,297.616956 13.87496,299.58369 14.8522985,299.506642 C15.8336756,299.43365 21.1807674,303.363063 20.8051787,307.296531 C20.4295899,311.229999 18.0185523,313.95504 19.5976406,315.467601 C21.1807674,316.980161 21.4836616,319.023942 21.7825172,319.855242 C22.0854114,320.686542 24.8720378,321.290755 26.1522705,320.836582 C28.0382915,324.242884 32.8603668,330.143085 36.7010649,331.805685 C40.541763,333.468285 45.965588,335.96624 47.7021813,336.193327 C49.434736,336.420414 50.6382355,336.493406 49.0551086,338.160061 C47.4760203,339.822661 46.870232,342.243568 47.5487149,344.287349 C48.2271979,346.327076 49.0551086,350.941804 48.4533588,352.304325 C47.8516091,353.666845 47.3992871,356.464879 49.9597525,357.750353 C52.5242565,359.035826 55.0079888,361.079608 55.3876161,362.137994 C55.7632049,363.196381 55.9893659,363.650555 57.2695986,363.877642 C58.5498313,364.104728 58.2469371,365.767328 57.2695986,366.675675 C56.2882215,367.584023 55.3108829,369.169575 53.0492731,369.096583 C50.7876633,369.019536 50.3393799,369.854891 50.7149687,370.686191 C51.0905575,371.51749 52.5242565,376.055171 51.2399852,377.263598 C49.9597525,378.476079 50.4888077,380.969979 50.7149687,382.863721 C50.9411297,384.753407 52.9765785,388.082662 53.2754341,388.913962 C53.6227527,390.754987 53.1179291,391.582232 53.1946623,392.251327 C53.3925532,393.970698 54.1437307,395.726566 54.1033448,396.70385 C54.0306502,398.520545 55.1574166,403.36236 53.1260063,403.816533 C51.0905575,404.270707 50.5655409,404.87492 50.2626467,405.629173 C46.7208042,405.556181 44.3097665,403.512399 44.4591943,401.618658 C44.5278504,400.795468 45.75962,398.930112 45.4930731,398.346175 C45.1497931,397.600032 43.1466529,398.281293 41.7493011,398.747632 C40.1177112,399.291018 39.1363341,399.120703 38.6315104,399.797908 C38.0418764,400.584602 38.1913042,402.409406 38.20342,403.402911 C38.223613,404.659999 38.2761146,405.738661 38.223613,406.505079 C37.6420561,407.798663 37.6097474,408.171734 37.6945578,408.674569 C37.8964872,409.951932 38.8294013,412.064651 39.6371191,413.041935 C40.7719626,414.404456 41.5231402,414.935677 40.3196406,415.616937 C39.8713573,417.928356 39.952129,418.865089 39.9682834,419.740996 C40.8123485,422.255171 39.6976979,422.445762 39.7138523,422.571471 C39.7380838,422.753951 38.272076,423.662298 38.5022756,425.495213 C38.9344046,428.998838 41.2848634,434.538134 42.0239252,435.434316 C43.1506915,436.792782 45.7434656,436.265616 47.8516091,436.642742 C48.9056808,436.829278 50.0849488,438.718965 51.2359467,439.351563 C52.3829059,439.988218 53.5015951,439.367784 54.0306502,439.817902 C55.084722,440.72625 55.7632049,444.58267 57.7219206,446.022238 C59.6806362,447.457751 71.2067692,460.24355 71.8085189,460.770715 C72.4143073,461.301936 73.5329964,463.507922 73.9126238,464.039143 C74.2882126,464.570364 76.4609734,464.663632 76.6871344,463.832332 C77.5150452,460.786936 78.9285513,463.345718 79.2677928,461.07485 C79.4939538,459.562289 82.8096353,458.653942 85.2206729,459.635281 C87.6317106,460.620676 90.6444979,461.374929 90.8706589,462.58741 C91.0968199,463.795836 92.6032136,468.864738 94.2590351,469.318912 C95.9188952,469.773085 100.890398,474.537853 101.492148,475.519192 C102.093898,476.504587 103.753758,479.679747 106.314223,481.269355 C108.874689,482.858962 109.932799,485.12983 110.457815,487.169557 C110.986871,489.213338 112.719425,493.523932 114.827569,492.388498 C116.939751,491.253064 117.993823,490.875938 120.631021,491.934324 C123.26822,492.992711 123.26822,492.919719 123.340914,495.036492 C123.417648,497.153266 123.567075,500.559568 124.69788,500.936694 C125.828685,501.313821 134.342031,511.828751 136.224013,510.997451 C138.105996,510.162096 139.612389,510.46623 139.164106,512.660051 C138.711784,514.853871 137.504246,516.216392 138.937945,516.743558 C140.367606,517.274779 144.438503,518.937379 146.02163,519.014426 C147.600718,519.091473 148.129774,517.956039 149.333273,519.695686 C150.540811,521.435334 152.273366,525.214707 152.499527,526.577228 C155.661742,525.822975 156.86928,524.083328 157.244869,525.895967 C157.620458,527.712662 157.321602,529.302269 159.357051,529.602348 C161.388461,529.906482 161.840783,529.829435 162.293105,528.771048 C162.745427,527.712662 162.971588,527.635614 165.608787,528.621009 C168.245985,529.602348 172.991327,534.444163 174.194827,534.594203 C176.335279,534.634754 186.06424,537.221922 186.476176,536.33385 C187.001192,535.202471 188.434892,534.971329 189.339536,535.425503 C190.244179,535.879676 198.22847,535.579597 201.015096,534.594203 C203.805761,533.612864 206.216799,534.294124 206.140066,537.619324 C206.063332,540.948578 203.502867,545.259173 203.955189,547.380001 C204.407511,549.496775 204.936566,551.990674 207.343565,551.990674 C209.754603,551.990674 209.980764,550.328074 209.379014,549.346735 C208.777264,548.361341 212.092946,543.219446 213.898195,541.779878 C215.707483,540.344365 222.637702,533.081643 226.631866,534.367116 C230.626031,535.656645 230.852192,535.956724 232.960335,537.092158 C235.068479,538.227592 241.473681,540.948578 242.152164,541.779878 C242.830647,542.615233 245.092256,544.882046 246.521917,543.292439 C247.951577,541.706886 251.267259,541.252712 252.999814,542.765273 C254.736407,544.277833 255.18469,546.394607 255.111996,546.84878 C255.035262,547.302954 255.338157,555.624063 258.197478,556.155284 C261.060837,556.68245 264.376519,556.155284 264.376519,560.615918 C264.376519,565.076551 263.249752,568.937027 268.972433,569.241161 C274.699152,569.54124 282.081693,570.753722 284.642158,570.903761 C287.206662,571.053801 295.869436,571.35388 297.678724,567.574506 C299.483973,563.791078 304.459514,559.02631 307.169408,558.726231 C309.883339,558.422097 323.065294,554.488629 324.648421,552.444848 C326.231548,550.405122 327.212925,548.51138 329.321068,547.68008 C331.429212,546.84878 335.500109,545.640354 337.006503,546.771733 C338.512897,547.907167 339.417541,548.438388 340.697773,548.438388 C341.978006,548.438388 347.627992,549.723861 348.83553,550.932288 C350.03903,552.144769 357.122715,560.53887 359.004697,559.180405 C360.88668,557.817884 363.750039,558.799223 363.826772,556.982529 C363.903506,555.16989 362.768662,550.628153 364.654683,549.950948 C366.536666,549.269688 366.83956,547.68008 366.916293,547.002875 C366.988988,546.321614 369.173864,545.940433 370.53083,547.075867 C371.887796,548.211301 370.381402,546.621693 372.941868,548.815514 C375.502333,551.009335 378.28896,551.990674 378.216265,556.378316 C378.139532,560.765957 379.496498,567.19738 381.002891,564.776472 C382.509285,562.355565 383.187768,561.524265 384.617429,562.655644 C386.051128,563.791078 386.200555,564.399346 386.652877,564.399346 C387.105199,564.399346 388.009843,566.211986 387.93311,567.801593 C387.860416,569.391201 387.480788,574.683134 387.783682,576.803963 C388.086577,578.920736 388.312737,583.458417 388.385432,584.89393 C388.462165,586.333499 387.480788,590.87118 387.33136,591.398345 C387.181933,591.929566 387.634255,597.075516 386.580183,596.24016 C385.526111,595.408861 383.789518,597.452642 384.617429,598.661068 C385.449378,599.873549 387.557521,603.429891 385.526111,603.125757 C383.490662,602.821623 382.436591,602.06737 381.531947,604.788357 C380.627303,607.513398 378.894748,608.41769 378.139532,607.436351 C377.388354,606.455012 374.82385,604.788357 375.050011,606.682098 C375.276172,608.571785 376.936032,609.930251 374.448262,611.823993 C371.960491,613.713679 371.592979,614.92616 369.937158,614.39494 C368.277298,613.863719 367.590737,614.471987 367.215149,615.9075 C366.83956,617.347068 366.011649,618.705534 366.690132,619.995062 C367.364576,621.276481 365.409899,623.020183 364.880844,623.397309 C364.351789,623.774436 363.071556,628.993377 364.202361,630.205858 C365.333166,631.414285 366.536666,634.062279 366.23781,634.816532 C365.934916,635.574839 361.791324,641.702128 364.279094,641.548033 C366.766865,641.397994 369.327331,638.827047 372.340118,638.749999 C375.352905,638.672952 381.455213,638.749999 382.888912,639.054134 C384.318573,639.358268 387.783682,638.672952 386.200555,640.793781 C384.617429,642.910554 383.64009,643.137641 384.015679,644.727249 C384.395306,646.316856 385.29995,646.543943 385.748233,646.994062 C386.200555,647.448235 388.688326,655.088084 388.611593,656.373558 C388.538898,657.659031 388.692365,659.62982 390.651081,660.311081 C392.609796,660.992341 394.415045,661.065333 396.523189,660.761199 C398.631332,660.46112 399.915604,660.688207 400.214459,662.577894 C400.517353,664.46758 400.892942,664.46758 398.631332,664.998801 C396.373761,665.525967 395.392384,668.100969 395.695278,669.840616 C395.994134,671.580263 390.420881,681.186846 394.338312,681.336886 C398.255744,681.486925 407.597,682.395273 407.750466,684.057872 C407.899894,685.724527 408.727805,688.672601 410.763254,690.789374 C412.798702,692.910203 413.097558,694.272724 414.906846,694.045637 C416.716134,693.81855 416.865562,693.741503 418.145794,694.272724 C419.426027,694.799889 423.194031,695.254063 424.39753,693.664455 C425.605068,692.078903 432.151621,688.303585 432.58375,689.507956 C433.015879,690.708272 433.205693,694.086188 432.866451,696.16241 C432.52721,698.238632 432.838181,701.758478 434.494003,701.531391 C436.153863,701.304304 439.465506,700.850131 440.59631,701.835525 C441.727115,702.816865 445.325498,702.447849 444.71971,701.012336 C444.11796,699.572767 443.007348,697.293789 443.382937,695.558197 C443.762564,693.81855 444.214886,693.514416 443.988725,691.851816 C443.762564,690.185161 441.634228,684.844566 441.028439,684.313345 C440.42669,683.786179 439.316078,680.655625 440.143989,678.611844 C440.975938,676.568063 442.555026,675.436684 443.609098,675.967905 C444.66317,676.495071 444.364314,676.568063 448.960228,676.64511 C453.556143,676.722158 454.747526,676.722158 456.326615,675.209597 C457.909741,673.697037 459.008238,671.426169 460.966953,672.407508 C462.925669,673.392903 466.362508,677.326371 469.149135,674.98251 C471.935761,672.63865 475.328176,668.401048 476.458981,670.140695 C477.589786,671.880342 477.698827,672.334516 478.34904,672.095264 C480.86912,668.745733 481.414329,668.579473 482.989379,670.826011 C484.568467,673.072548 487.722605,675.846251 487.722605,675.846251 C487.722605,675.846251 489.955945,675.846251 490.08518,671.486996 C490.214415,667.12774 493.368553,671.223413 493.893569,671.093649 C494.422624,670.95983 499.806064,668.976875 502.56442,668.052308 C505.322776,667.12774 501.381113,663.693052 504.931033,662.500846 C508.476914,661.312696 513.46861,657.087259 515.439441,659.199977 C517.410273,661.312696 521.218662,666.466755 528.047916,666.336991 C534.881209,666.203172 532.910377,667.654906 536.589532,667.12774 C540.268687,666.596519 540.397921,670.562428 539.218653,672.281799 C538.035347,673.997116 536.197789,675.716487 537.247822,680.339326 C538.297855,684.96622 539.610397,685.359566 542.502026,685.359566 C545.389617,685.359566 547.360449,688.13327 547.622957,688.794254 C547.889504,689.455239 553.13967,692.893982 556.689589,693.157565 C559.791226,693.388707 562.997865,692.707447 565.808723,694.078078 C567.056647,694.686346 567.000107,694.970204 568.563041,694.872882 Z" id="path-1"></path>
        <filter x="-6.2%" y="-6.6%" width="112.4%" height="116.0%" filterUnits="objectBoundingBox" id="filter-2">
            <feOffset dx="0" dy="10" in="SourceAlpha" result="shadowOffsetOuter1"></feOffset>
            <feGaussianBlur stdDeviation="17.5" in="shadowOffsetOuter1" result="shadowBlurOuter1"></feGaussianBlur>
            <feColorMatrix values="0 0 0 0 0.104698129   0 0 0 0 0.103547623   0 0 0 0 0.103547623  0 0 0 0.5 0" type="matrix" in="shadowBlurOuter1"></feColorMatrix>
        </filter>
    </defs>
    <g id="2inUI" stroke="none" stroke-width="1" fill="none" fill-rule="evenodd">
        <g id="--" transform="translate(-80.000000, -229.000000)">
            <g id="map" transform="translate(112.000000, 252.000000)">
                <g id="Fill-1">
                    <use fill="black" fill-opacity="1" filter="url(#filter-2)" xlink:href="#path-1"></use>
                    <use fill="#7A7A7A" fill-rule="evenodd" xlink:href="#path-1"></use>
                </g>
                <path d="M64,345.137901 C72.8846908,340.230859 72.1053353,353.749635 83.4784343,339.249878 C91.0605003,329.583374 99.2712904,329.583374 108.110805,339.249878 C111.843103,342.67321 118.570852,340.904132 128.294051,333.942647 C134.415768,332.74635 138.098676,336.478102 139.342776,345.137901 L154.416137,345.137901 C162.13169,339.562304 169.759141,339.562304 177.298492,345.137901 C184.837842,350.713498 190.890146,349.058661 195.455404,340.17339 C199.865817,336.874215 206.275866,336.87684 214.685552,340.181265 C227.300081,345.137901 234.035839,339.870724 247.339161,353.068707 C250.769779,362.294612 248.965033,366.978327 241.924925,367.119853 C239.882573,369.672665 241.687318,373.784934 247.339161,379.456663 C246.914672,387.155152 245.109927,393.551868 241.924925,398.64681 L252.917586,415.938371 C253.358093,421.246938 258.262408,421.246938 267.630531,415.938371 C275.530297,431.191154 291.933189,439.928392 316.839207,442.150086 C319.450215,441.634717 323.198532,445.306387 328.084159,453.165095 C333.194044,450.075552 335.504705,453.546948 335.016143,463.579285 C340.425636,463.080146 343.824217,463.080146 345.211886,463.579285 C352.300049,470.957338 345.316006,456.201232 354.230273,463.579285 C360.173117,468.497987 363.204609,468.497987 363.324747,463.579285 L370.256731,453.165095 C373.994369,447.557454 379.320504,451.028851 386.235134,463.579285 C391.698384,470.403137 391.698384,476.153639 386.235134,480.830791 C391.33701,484.531834 393.887948,494.756432 393.887948,511.504586 C393.887948,536.626816 386.155042,545.743238 393.887948,545.743238 C399.043219,545.743238 402.527232,541.873966 404.339986,534.135422 L413.258258,545.743238 L413.258258,557.791655 L418.956821,557.791655 L433.934071,578.896411 L433.934071,593.512326 L442.816302,593.512326 L450.154853,593.512326 C457.807601,592.639136 461.633975,589.984853 461.633975,585.549476 C461.633975,578.896411 453.324404,568.918816 469.68725,563.355235 C473.763946,558.817052 460.312453,551.987746 476.915575,551.987746 C479.999127,545.006234 481.576944,539.498729 487.547821,545.743238 C491.528406,549.906244 491.528406,553.922382 487.547821,557.791655 C485.174421,561.660927 489.957263,561.660927 501.896347,557.791655 C505.334974,558.843755 505.334974,563.542157 501.896347,571.88686 C492.330663,571.88686 487.547821,571.88686 487.547821,571.88686 C487.547821,571.88686 476.915575,564.877309 476.915575,571.88686 C476.793382,571.958654 473.711345,576.944093 476.915575,585.549476 C482.866792,583.677103 486.410874,583.677103 487.547821,585.549476 C489.383416,587.413855 490.301213,590.068138 490.301213,593.512326 C490.301213,598.678608 487.547821,595.850193 487.547821,602.282695 C487.547821,606.57103 488.465618,609.796566 490.301213,611.959304 C492.136808,616.552384 492.136808,618.848924 490.301213,618.848924 C491.05149,621.524014 490.133692,624.141965 487.547821,626.702776 L493.476325,626.702776 C498.358081,620.631865 505.129917,620.631865 513.79183,626.702776 C523.460817,630.121347 519.899707,625.594486 519.899707,622.221705 C519.899707,618.848924 524.810548,623.919883 526.73153,618.848924 C528.652511,613.777965 533.034367,618.848924 533.034367,618.848924 C533.034367,618.848924 542.325434,606.872318 542.325434,616.787547 C545.963071,615.750262 548.910755,615.750262 551.168488,616.787547 C552.828158,620.019791 555.494446,618.410377 559.167352,611.959304 C561.149685,609.676247 563.505126,611.285662 566.233674,616.787547 L569.122645,609.882008 C571.51217,608.497145 573.682193,608.497145 575.632714,609.882008 C578.558496,611.959304 569.275342,601.018264 579.486948,605.450136 C581.365665,603.269655 581.038457,592.606086 588.29565,602.282695 C591.795863,597.540602 594.857527,596.866395 597.480642,600.260073 C604.214757,592.457033 610.706648,590.843377 616.956314,595.419104 C617.517112,599.803703 617.517112,602.091567 616.956314,602.282695 C620.024795,605.342444 618.762319,610.177395 613.168886,616.787547 C611.251994,624.293094 612.51447,626.104479 616.956314,622.221705 C620.092054,619.373632 621.659924,620.867322 621.659924,626.702776 C623.310505,627.886355 626.576674,627.886355 631.45843,626.702776 C633.384058,616.469852 636.139581,613.164776 639.724998,616.787547 C645.103124,622.221705 640.662685,613.377766 646.008527,618.848924 C649.572422,622.496362 651.714868,621.809237 652.435864,616.787547 L648.676312,611.959304 L652.435864,609.882008 C654.705487,608.497145 656.726625,608.497145 658.499279,609.882008 C661.15826,611.959304 663.350598,614.313881 668.984056,609.882008 C674.617515,605.450136 667.538639,619.503944 678.302228,609.882008 C682.407115,610.426982 683.386868,612.728829 681.241488,616.787547 C677.299974,617.799138 675.329218,621.104214 675.329218,626.702776 C676.277177,629.628098 678.247933,630.606894 681.241488,629.639165 C684.635161,627.681572 687.923668,626.702776 691.10701,626.702776 C695.882023,626.702776 694.13725,619.523512 700.10088,624.581339 C702.507463,626.984516 704.408761,625.073711 705.804775,618.848924 C704.800075,613.376441 705.4477,608.910178 707.74765,605.450136 C711.197575,600.260073 704.25517,601.999234 709.970804,595.419104 C715.686439,588.838974 712.773593,592.202541 715.306375,585.549476 C717.839157,578.896411 708.722023,574.106345 721.915673,571.88686 C724.178448,570.055925 724.178448,565.357523 721.915673,557.791655 C726.096866,553.922382 729.511084,551.987746 732.158325,551.987746 C736.129187,551.987746 738.069127,553.232585 746.035797,543.684003 C746.361566,538.844381 743.683998,533.102099 738.003093,526.457158 C739.118339,520.292657 740.735934,517.210407 742.855879,517.210407 C746.035797,517.210407 749.914211,509.184813 749.914211,501.942992 C752.164268,499.506546 754.852597,498.338227 757.979198,498.438033 C752.681781,492.448682 752.681781,489.454006 757.979198,489.454006 C763.276615,489.454006 764.382078,487.626183 761.295587,483.970536 C758.413557,479.784209 754.619765,478.737627 749.914211,480.830791 C742.855879,483.970536 746.035797,478.523759 746.035797,473.580416 C746.035797,468.637073 738.003093,473.993475 738.003093,463.579285 C736.521968,459.728892 738.139564,457.202902 742.855879,456.001314 C739.079696,452.517881 740.139669,450.776165 746.035797,450.776165 C754.879989,450.776165 753.792624,449.433365 749.914211,445.791726 C747.328602,443.363966 744.975824,443.363966 742.855879,445.791726 L734.346261,445.791726 L728.068601,437.820439 C733.411998,428.118688 731.361022,424.181725 721.915673,426.009548 C717.550073,420.118046 712.773593,420.925302 709.970804,421.399382 C709.037697,419.591649 707.7595,417.941365 706.419043,416.518479 C703.916547,413.862098 700.094304,412.098253 698.998125,411.482127 C697.875894,410.851359 696.772137,411.480934 695.686855,413.370853 L696.507723,417.055773 C699.448407,417.625565 701.443617,419.073435 702.493352,421.399382 C704.067955,424.888303 704.238295,426.844357 696.507723,430.905471 C694.927382,431.710056 693.127145,429.604799 691.10701,424.5897 C684.480574,421.739421 682.823965,424.248157 686.137183,432.11591 C684.876155,434.640081 683.244257,436.541591 681.241488,437.820439 C681.530082,442.821149 679.559325,444.995199 675.329218,444.342587 C674.11132,445.599132 674.63065,447.473462 676.887205,449.965576 C679.79006,450.74127 681.241488,452.143456 681.241488,454.172133 C681.241488,456.20081 683.525662,457.666713 688.094012,458.569842 C692.195221,457.546797 694.245826,457.873894 694.245826,459.551134 C694.245826,462.066995 695.82399,473.580416 691.959001,473.580416 C688.094012,473.580416 684.180354,477.280291 686.137183,481.919614 C687.441736,485.012495 690.624959,487.090049 695.686855,488.152274 C698.293608,488.596715 697.813265,491.740057 694.245826,497.582298 C693.65033,499.212443 695.234429,504.589861 698.998125,513.714555 C697.050599,516.501512 694.420228,517.198251 691.10701,515.804773 C687.330057,516.337864 685.673448,518.024998 686.137183,520.866175 C681.009189,522.663727 677.925863,524.827953 676.887205,527.358852 C669.777651,527.455418 665.318352,529.39307 663.509309,533.171807" id="Path-10" stroke="#A8A8A8"></path>
                <path d="M670.09429,609 C670.112404,600.790684 671.387142,596.283654 673.918502,595.47891 C677.715542,594.271796 675.863287,589.961704 672.006396,591.422779 C669.435135,592.39683 668.797766,590.705636 670.09429,586.3492 C670.926763,583.763521 669.95265,581.785417 667.171953,580.414889 C667.176769,577.613289 667.176769,574.167681 667.171953,570.078064 C666.034419,568.619667 664.784256,568.619667 663.421463,570.078064 C661.377273,572.265658 657.468673,563.426073 665.693587,553.687984 C673.082741,546.780694 673.082741,540.082358 665.693587,533.592977 C661.043396,533.278474 659.160527,530.916483 660.044978,526.507004 C661.371655,519.892786 659.570649,517.898877 657.628387,517.898877 C655.686126,517.898877 650.825657,525.0178 648.555941,525.0178 C647.042796,525.0178 645.330075,524.225648 643.417777,522.641343 C640.076873,523.474483 637.784416,523.891053 636.540406,523.891053 C635.296396,523.891053 632.884621,521.893661 629.305081,517.898877 C616.906974,514.030203 609.970096,512.095866 608.494447,512.095866 C606.280974,512.095866 601.796402,510.779953 605.928121,517.898877 C606.187624,521.626842 601.709009,522.481351 592.492276,520.462405 C588.809173,520.462405 585.642609,524.839262 582.992584,533.592977 C579.894276,550.071964 583.116261,550.6957 582.992584,552.42559 C577.725133,556.899558 580.425909,568.06906 580.539877,567.899308 C574.370637,570.922723 571.98722,573.31954 573.389627,575.08976 C572.794642,577.48363 574.477132,578.082098 578.437098,576.885163 C584.377047,575.08976 586.410803,573.848087 585.393925,578.106744 C584.377047,582.3654 585.901963,583.431872 582.992584,583.431872 C581.857725,584.573086 581.040156,587.236722 580.539877,591.422779 C583.775909,593.211217 585.393925,594.997779 585.393925,596.782466" id="Path-13" stroke="#A8A8A8"></path>
                <path d="M250,352.173308 C254.542902,349.816769 260.676913,351.312415 268.402033,356.660247 C276.127153,362.00808 278.450938,358.594918 275.373387,346.420762 C271.559313,341.111974 272.508666,338.45758 278.221444,338.45758 C283.934223,338.45758 281.451661,331.142593 270.77376,316.512619 L272.159513,311.539807 L268.402033,303.817132 C295.884634,297.501535 312.587686,295.111571 318.51119,296.647237 C327.396446,298.950738 333.750037,289.267464 357.55287,306.705191 C373.876187,320.305229 373.879148,322.930199 378.805531,320.800367 C380.076299,317.847767 381.510662,312.546588 383.108622,304.896828 C386.746224,304.888453 391.448311,308.307861 397.214881,315.155054 C399.603431,313.712503 401.798774,312.913138 403.800912,312.75696 L406.837429,314.195816 L410.232229,311.539807 L425.515491,327.55427 C427.93217,330.601414 429.140509,330.23755 429.140509,326.462676 C429.140509,322.687803 431.025687,323.773165 434.796042,329.718763 C437.857234,334.536629 441.181957,337.892975 444.77021,339.787802 C450.152589,342.630042 455.393579,346.022107 455.393579,347.500131 C455.393579,348.48548 456.78945,347.661728 459.58119,345.028875 C460.978788,345.772051 461.328187,347.148584 460.629388,349.158474 C461.784183,350.680346 464.3119,353.759563 468.212539,358.396124 C466.419153,365.640412 468.001567,372.251613 472.959781,378.229728 C473.231701,382.437169 472.124776,384.999078 469.639007,385.915453 C466.99433,385.182845 466.518841,386.91238 468.212539,391.104056 C467.932724,392.453984 466.373258,393.121312 463.534141,393.106039 L463.534141,399.851741 C457.007578,402.420054 453.744296,405.565535 453.744296,409.288185 C455.268723,411.351999 457.214355,412.985216 459.58119,414.187834 C457.853659,419.365353 455.163142,421.954112 451.509637,421.954112 C443.984801,416.325796 442.186727,415.741238 439.783126,415.741238 C437.379525,415.741238 433.15046,416.028713 437.566068,421.954112 C441.981677,427.87951 439.783126,426.086667 439.783126,428.717549 C439.783126,430.471471 441.445487,430.805751 444.77021,429.720389 C447.74504,429.282401 449.232454,430.711896 449.232454,434.008875 C449.232454,438.954343 449.757294,441.960502 444.77021,441.960502 C439.783126,441.960502 440.336095,439.455837 437.566068,449.900669 C433.934913,451.424898 430.459129,453.458008 427.138715,456 C428.156574,450.156587 426.723394,448.123477 422.839177,449.900669 C420.769029,444.561036 418.740574,443.028751 416.753813,445.303815 C413.272638,448.971524 409.967176,448.971524 406.837429,445.303815 C402.142808,439.802253 397.214881,434.695443 397.214881,430.93482 C397.214881,427.174197 392.495979,418.756788 385.650755,420.35545 C381.087273,421.421224 379.217253,420.524572 380.040697,417.665493 C374.198566,417.556173 372.532172,419.537992 375.041516,423.610951 C377.550859,427.683909 377.550859,431.501462 375.041516,435.06361 L370.477291,441.960502 L375.041516,448.741386" id="Path-14" stroke="#A8A8A8"></path>
                <path d="M319.539301,300.36211 C317.4869,294.568296 317.4869,289.575954 319.539301,285.385085 C321.591702,281.194216 321.591702,277.66812 319.539301,274.806796 L329.59482,274.806796 C344.65787,259.218299 356.104097,251.424051 363.9335,251.424051 C375.677605,251.424051 373.780945,251.424051 373.780945,248.746097 C373.780945,246.068143 378.808128,244.216401 390.475076,248.746097 C393.195446,255.911566 394.727912,259.082195 395.072474,258.257984 L398.442732,261.582773 L410.32356,274.806796 L406.372681,282.773211 C407.177986,286.381209 409.391869,286.381209 413.01433,282.773211 C416.636792,279.165213 419.143855,278.017596 420.535519,279.330361 L427.487262,277.300862 C435.644613,277.586129 438.509694,280.28087 436.082504,285.385085 C433.655314,290.489301 430.790233,294.849618 427.487262,298.466037 C433.217423,301.933682 436.082504,304.569504 436.082504,306.373503 C436.082504,309.079502 447.957694,310.546186 447.957694,316.129413 C447.957694,319.851565 449.839081,322.020013 453.601854,322.634757 C456.809618,328.525824 460.216743,329.62151 463.82323,325.921815 C463.426685,322.805052 463.426685,320.547714 463.82323,319.149802 L471.678474,316.129413 L478.09601,319.149802 L490.832416,313.99465 C495.102316,312.916742 497.237266,314.635126 497.237266,319.149802 C497.237266,323.664478 497.922292,325.921815 499.292343,325.921815 C496.914956,327.18686 494.910621,329.484433 493.279339,332.814532 C490.809863,333.137343 488.336629,333.773609 485.859636,334.723328 L488.15856,340.569014 L482.898238,343.585192 L485.859636,347.599277 L490.832416,351.35792 C494.267881,355.476801 497.087857,357.536242 499.292343,357.536242 C500.404878,357.536242 501.369748,358.063264 502.186953,359.117307 C502.721677,359.807002 503.381512,361.349246 504.166457,363.744038 C511.949816,365.043703 515.841496,369.458729 515.841496,376.989114 C515.841496,388.284693 520.574657,381.311975 518.208076,386.934501 C516.630356,390.682851 516.630356,393.647098 518.208076,395.827242 C523.330265,396.410174 525.89136,397.884344 525.89136,400.249753 C525.89136,402.615163 527.984024,404.531912 532.169353,406 L536.200575,395.827242 C543.073385,390.200974 543.073385,386.231802 536.200575,383.919727 C536.798211,377.96784 538.250954,371.976655 540.558805,365.946171 L546.009219,365.946171 C548.548359,356.22067 550.939906,351.35792 553.183859,351.35792 C556.549788,351.35792 548.948257,339.571107 540.558805,343.585192 C536.53698,340.965277 537.221536,335.738077 542.612473,327.903594 C546.836329,325.5045 546.151773,322.586569 540.558805,319.149802 C535.671536,318.290844 530.782387,321.208775 525.89136,327.903594 C527.579962,340.855334 525.018868,348.673442 518.208076,351.35792 C511.397285,354.042398 508.555696,356.101838 509.683311,357.536242 L500.314685,356.943254" id="Path-15" stroke="#A8A8A8"></path>
                <path d="M449,436.231987 C452.618812,434.384324 453.73249,436.156905 452.341034,441.54973 C450.949578,446.942555 453.123625,445.965149 458.863176,438.617511 L458.863176,428.956583 C458.536414,424.25031 460.223269,423.073742 463.923741,425.426878 C468.520687,421.490857 472.149017,421.490857 474.808731,425.426878 C473.415749,429.220926 475.006592,431.117951 479.581258,431.117951 C481.530159,434.959676 484.49913,435.828465 488.488171,433.724316 C491.777008,432.271651 493.421426,433.902716 493.421426,438.617511 C495.971866,441.142331 497.092193,444.016232 496.782405,447.239213 L493.421426,453.999845 C494.680733,459.148987 498.192892,460.436272 503.957905,457.861702 C512.605424,453.999845 503.846509,465.99067 514.023338,457.861702 C515.604101,456.502371 515.604101,455.215085 514.023338,453.999845 C515.103659,453.833493 515.887452,453.702119 516.374717,453.605723 C524.314709,452.034955 526.012396,448.904147 521.467779,444.213298 C522.054465,437.82137 525.898691,435.956108 533.000457,438.617511 C529.747691,434.530029 529.747691,431.309719 533.000457,428.956583 C536.253223,426.603446 535.53127,423.004874 530.834599,418.160867 C535.244823,414.011888 536.708356,410.839233 535.225196,408.642902 C533.000457,405.348405 542.140428,404.755618 544.594762,408.642902 C547.049096,412.530186 554.886606,412.58422 554.886606,404.547427 C554.289311,400.864626 558.076248,399.726729 566.247416,401.133737 C570.051858,401.438871 571.002968,394.088631 569.100748,379.083015 C563.732517,375.577149 557.153252,371.614112 549.362952,367.193902 C545.607048,362.501403 546.721407,357.079971 552.70603,350.929608 C556.817076,348.664409 559.974491,348.664409 562.178276,350.929608 C563.888471,353.511595 566.195962,353.511595 569.100748,350.929608 C572.005533,348.34762 573.212324,345.902838 572.72112,343.595259 L577.931275,343.595259 L574.796271,337.683282 C583.492592,324.249956 589.62309,317.533293 593.187765,317.533293 C596.75244,317.533293 596.75244,315.875715 593.187765,312.560557 C602.846337,310.527388 607.675622,309.510804 607.675622,309.510804 C609.70197,308.271195 610.810096,309.28778 611,312.560557 C608.783748,320.039526 607.675622,325.572735 607.675622,329.160182 C607.675622,334.541352 595.961528,331.281819 603.480764,353.720315 C596.308447,370.524952 598.623894,373.550867 601.052329,387.342302 C597.132248,400.349711 596.162041,409.255289 598.141708,414.059036 C598.904506,419.284461 600.684192,423.073742 603.480764,425.426878 C602.099452,431.20324 603.497739,435.600118 607.675622,438.617511 C610.823685,443.286431 610.021715,446.833718 605.269712,449.259372 C602.077592,447.219188 599.701591,446.545802 598.141708,447.239213 L587.319916,445.818462 L584.24516,449.259372 C587.828801,450.92074 589.620622,452.500897 589.620622,453.999845 C589.620622,455.498793 591.50698,457.195825 595.279695,459.090939 C596.23227,461.802587 593.57901,462.632016 587.319916,461.579226 C584.831058,462.317008 583.80614,464.331402 584.24516,467.622407 C587.431285,471.300264 587.784991,475.092795 585.306279,479 C581.501136,477.285805 575.148181,473.493274 566.247416,467.622407 C560.225662,471.651194 556.438725,471.651194 554.886606,467.622407 C553.334487,463.59362 549.903873,461.579226 544.594762,461.579226 C541.388968,456.602391 536.733022,455.772962 530.626925,459.090939 C526.855272,455.316452 523.802223,454.906706 521.467779,457.861702 C516.504818,460.650422 514.023338,460.650422 514.023338,457.861702" id="Path-16" stroke="#A8A8A8"></path>
                <path d="M613,313.069869 C621.815054,310.567548 626.222581,306.016654 626.222581,299.417189 C626.816139,296.057148 629.536061,295.175018 634.382347,296.770798 C637.603707,292.489857 640.669317,291.419622 643.579177,293.560092 C646.489038,295.700563 650.723246,293.180532 656.281801,286 L663.344671,291.243961 C656.34638,293.706077 654.917092,297.305437 659.056805,302.042042 C665.266375,309.146949 665.223639,315.068662 659.056805,319.544409 C653.68344,317.985006 652.758439,319.873712 656.281801,325.21053 C650.507665,331.190637 649.526632,336.604515 653.338701,341.452164 C659.056805,348.723637 664.774909,346.864127 659.056805,356.344038 C653.338701,365.823948 647.620597,367.541302 653.338701,376.344897 C657.150771,382.21396 663.963396,384.067726 673.776578,381.906196 C677.05397,377.729598 679.6718,377.729598 681.630067,381.906196 C684.567469,388.171092 686.192869,379.077443 681.630067,371.698276 C685.379457,368.513417 688.850111,362.159014 692.042031,352.635069 L699.912615,350.014524 L705.060902,341.452164 C711.639429,339.919724 715.952461,337.769003 718,335 C716.921148,333.132752 714.592975,329.869595 711.01548,325.21053 L712.515499,319.544409 L711.01548,325.21053" id="Path-18" stroke="#A8A8A8"></path>
                <path d="M700,512.941081 C710.312695,507.854146 715.469042,507.691667 715.469042,512.453645 C715.469042,517.215623 717.343861,517.215623 721.093498,512.453645 C721.162997,508.794536 723.618628,508.794536 728.460393,512.453645 C733.302157,516.112754 737.482026,517.563102 741,516.804691" id="Path-21" stroke="#A8A8A8" stroke-width="1.8432"></path>
                <path d="M656.594339,285 C651.392506,278.842162 650.607913,273.142429 654.240561,267.900801 C659.689532,260.038359 660.07984,259.542927 660.07984,255.185838 C662.834153,249.453303 665.206111,249.453303 667.195716,255.185838 C665.6663,263.0381 666.959372,265.965448 671.074933,263.967884 C677.248275,260.971537 682.860869,255.185838 689.23533,255.185838 C693.484971,255.185838 696.431881,251.32305 698.07606,243.597475 C705.474298,238.380732 710.088113,237.456603 711.917504,240.82509 C714.66159,245.87782 723.268817,248.450372 718.965203,255.185838 C716.096128,259.676149 717.509077,263.91447 723.20405,267.900801 C728.108181,262.656911 731.348816,261.345939 732.925955,263.967884 C735.291664,267.900801 737.746002,256.086778 735.335979,252.179311 C732.925955,248.271844 734.154829,238.923105 740.103189,243.597475 C744.068763,246.713721 747.279855,249.574333 749.736466,252.179311 L761.000855,240.82509 L771.464175,233.917882 L774.085544,228.257739 L777.225052,228.257739 L781.336068,224.2332 L787.96278,224.2332 L793.62821,220.059353 L798,213.050345 C793.409479,211.834386 791.114218,207.137395 791.114218,198.959369 C791.114218,190.781344 789.173473,186.797526 785.291983,187.007915" id="Path-23" stroke="#A8A8A8"></path>
                <path d="M732.980352,264 C729.006549,268.944764 729.006549,273.039311 732.980352,276.283639 C738.941057,281.150131 739.215253,271.939529 748,290" id="Path-24" stroke="#A8A8A8" stroke-width="0.9216"></path>
                <path d="M692.405864,274.35697 C693.63245,268.547677 696.177102,268.547677 700.03982,274.35697 C702.328838,275.293323 704.703922,275.826946 707.165072,275.957841 C709.998986,275.299925 709.998986,276.384682 707.165072,279.212113 C704.331158,282.039543 705.211199,284.1106 709.805195,285.425283 C710.56004,288.13732 709.121189,289.493338 705.488641,289.493338 C699.897091,289.252217 698.080817,290.349605 700.03982,292.785501 L703.469927,298.564654 C702.905652,299.689311 700.585,300.251639 696.507972,300.251639 C695.938567,301.884373 695.243768,303.46716 694.423575,305 C692.634424,302.928082 690.775167,301.892123 688.845803,301.892123 C685.951757,301.892123 685.605497,305.219592 681.237497,301.892123 C678.325496,299.67381 676.579664,299.126982 676,300.251639 L679.005191,295.507584 C677.958718,292.826979 679.337201,290.822231 683.140642,289.493338 C688.845803,287.5 686.11249,287.975137 684.626566,285.425283 C683.140642,282.875429 681.142596,279.212113 686.77423,279.212113 C688.993141,277.421502 690.870353,275.803121 692.405864,274.35697 Z" id="Path-9" stroke="#8F8F8F" stroke-width="1.8432" fill="#9A0909"></path>
                <path d="M709.718229,287 L714.271662,291.563902 C712.753851,291.565959 711.994945,292.85003 711.994945,295.416117 C711.994945,297.982204 713.99663,301.570458 718,306.180881 C714.964378,310.846821 713.584083,315.714778 713.859115,320.784752 C710.497566,322.857875 706.188579,322.278552 700.932152,319.046784 C697.8219,315.903944 698.466658,312.973918 702.866425,310.256703 C702.472964,308.238069 701.258119,304.825639 699.221891,300.019414 L702.866425,298.857889 C699.978906,294.278363 698.764061,291.599177 699.221891,290.820331 C699.67972,290.041485 702.146087,289.753394 706.620992,289.95606 C707.370562,290.078667 707.909727,289.825641 708.238487,289.196981 C708.567248,288.568321 709.060495,287.835994 709.718229,287 Z" id="Path-19" stroke="#8F8F8F" stroke-width="1.8432" fill="#2D2D30"></path>
                <path d="M565.760877,468 L584.840589,478.706397 C590.398301,480.006153 591.78773,482.87043 589.008873,487.299227 C598.711563,488.42204 600.561328,494.875282 594.558169,506.658954 L589.008873,503.922831 L579.069865,513.384117 L571.465561,509.994213 L565.760877,513.384117 C559.383467,511.110293 557.789114,514.986111 560.97782,525.011574 C560.86655,526.366694 560.451087,527.850127 559.731431,529.461872 C564.448397,532.863998 567.349244,536.604078 568.433972,540.682113 C570.061063,546.799165 567.608233,546.122504 571.465561,544.366495 C574.037113,543.195822 577.964718,549.766241 583.248376,564.07775 C580.753993,567.767549 578.219225,570.143015 575.644073,571.204149 C573.068921,572.265284 570.538674,572.265284 568.053332,571.204149 C565.203233,567.603817 562.429266,565.228351 559.731431,564.07775 C555.684679,562.351848 554.456121,559.92821 555.582799,557.710054 C556.709477,555.491898 558.859454,549.929573 554.100288,549.929573 C550.92751,549.929573 549.693708,550.321971 550.39888,551.106768 C549.06095,553.995063 547.513516,554.520937 545.756577,552.684391 C543.121169,549.929573 537.869081,542.149092 536.654006,549.929573 C535.438932,557.710054 536.197042,558.973055 531.291048,556.373289 C526.670469,553.010805 524.201865,554.093163 523.885237,559.620363 C524.502512,564.609144 522.543561,566.599237 518.008381,565.590642 C518.510792,562.98937 517.68526,559.91692 515.531787,556.373289 C514.62585,554.434379 514.172881,557.50683 514.172881,565.590642 C511.023576,565.275519 507.908231,562.648656 504.826846,557.710054 C502.439647,556.664327 499.609717,557.301096 496.337056,559.620363 C491.428066,563.099262 483.867935,560.406163 487.648,557.710054 C491.428066,555.013944 493.524106,548.57926 489.517058,545.586593 C485.510009,542.593927 485.339209,540.865015 483.214702,542.615755 C481.090194,544.366495 495.35346,529.461872 498.630116,529.461872 C502.015394,526.45641 499.472877,521.432691 496.337056,523.222132 C493.201235,525.011574 492.897841,514.956019 502.720317,513.384117 C504.779402,513.561048 506.515615,515.587421 507.928957,519.463235 C509.550055,521.354275 512.909863,520.813849 518.008381,517.841956 C519.699397,516.735513 520.608081,518.125467 520.734433,522.011818 C522.962319,525.204616 525.655659,526.204535 528.814454,525.011574 C531.027857,523.139693 533.318419,518.730874 535.686142,511.785118 C535.928857,505.664116 538.441659,503.043354 543.224547,503.922831 C550.39888,505.242048 550.39888,506.362792 550.39888,502.114651 C550.39888,497.86651 547.738751,486.864547 558.086361,484.867679 C560.617392,484.125534 561.581211,482.071773 560.97782,478.706397 C555.191208,474.903725 554.227389,472.388451 558.086361,471.160574 C561.945334,469.932698 564.503506,468.879173 565.760877,468 Z" id="Path-28" stroke="#A8A8A8" fill="#9A0909"></path>
                <path d="M703.694356,410.621452 L693.405356,410.621452 C690.047174,410.617166 688.828373,408.996147 689.748952,405.758395 C688.865196,404.139124 686.497823,403.183702 682.646833,402.89213 C679.253164,403.29764 678.228054,402.214829 679.571506,399.643697 C680.914957,397.072564 682.361157,391.221348 683.910105,382.090049 C684.204295,375.313478 683.226303,371.667446 680.976131,371.151954 C684.546492,368.733881 688.003508,362.624294 691.347178,352.823193 L699.013181,349.535035 L705.318598,340.956129 C711.106038,340.542092 714.844226,338.462549 716.533161,334.717501 C719.68149,332.3902 721.934309,332.3902 723.291618,334.717501 C726.225008,331.385154 728.484254,330.071273 730.069358,330.775858 C730.775037,331.47688 731.28519,332.220156 731.599816,333.005688 C731.566443,334.085984 733.310133,333.084088 736.830887,330 C738.015002,330 738.439301,330.433875 738.103785,331.301625 C739.928106,333.157525 740.612386,336.132794 740.156624,340.227433 C739.472981,346.36939 739.342672,344.817674 740.156624,345.593532 C740.699258,346.110771 741.811913,346.811665 743.494589,347.696215 C744.175557,348.762257 745.867404,349.028767 748.57013,348.495746 C751.272857,347.962726 752.822039,347.962726 753.217678,348.495746 C754.057105,348.986258 755.104288,347.542723 756.359225,344.165143 C756.371453,343.107247 757.439271,342.037576 759.562678,340.956129 C760.392425,341.16448 761.425977,339.607484 762.663336,336.28514 C765.257281,333.119343 768.623142,331.708645 772.76092,332.053047 C774.288193,333.139197 775.696622,333.682273 776.986207,333.682273 C778.920583,333.682273 783.014415,332.957578 782.252434,335.353881 C781.551595,337.451601 783.081162,337.76202 786.841133,336.28514 C789.16962,335.9302 790.732178,335.407654 791.528806,334.717501 C792.325434,334.027349 793.518083,334.239476 795.106753,335.353881 C795.343168,336.070837 796.649567,335.858711 799.025948,334.717501 C801.960759,333.934694 802.723504,334.93337 801.314184,337.713529 C801.871339,338.496515 801.871339,340.005595 801.314184,342.24077 C800.47845,345.593532 802.945144,344.060143 799.025948,347.060103 C797.809734,347.502505 796.503336,346.741538 795.106753,344.777201 C794.32541,343.453303 792.874437,344.214271 790.753832,347.060103 C788.355542,349.774335 784.227827,352.746931 778.370688,355.977893 C777.323124,356.580914 776.518599,356.580914 775.957112,355.977893 C775.114883,355.073361 772.891611,356.391786 775.957112,357.526173 C778.307763,358.179085 778.650795,359.174745 776.986207,360.513152 C775.999529,361.343737 775.048646,361.343737 774.133555,360.513152 C772.76092,359.267273 775.642996,366.388599 771.865573,367.959025 C770.276266,369.006357 771.255683,368.720374 768.573082,367.959025 C765.890482,367.197676 769.349584,365.789141 765.288616,365.812051 C764.097114,366.735801 764.097114,367.451459 765.288616,367.959025 C767.427564,369.142158 767.9623,370.625656 766.892827,372.40952 C765.288616,375.085315 763.386534,378.276132 761.018198,378.276132 C758.649862,378.276132 758.019715,379.726223 756.359225,384.678408 C755.252232,387.979864 754.961481,389.749654 755.486973,389.987778 C755.764153,390.488797 754.680641,392.501269 752.236437,396.025195 C751.632504,399.473737 749.266694,400.123603 745.139007,397.974791 L743.494589,405.758395 L739.137919,405.758395 C739.674873,413.352959 738.297684,414.973978 735.006354,410.621452 C733.429741,405.10152 731.784076,404.021077 730.069358,407.380124 L727.196978,411.615951 L721.900712,408.542025 L720.320221,411.615951 L713.704328,402.89213 C710.715482,400.897937 708.299942,401.853358 706.457708,405.758395 C704.615473,409.663432 703.694356,411.284451 703.694356,410.621452 Z" id="Path-8" stroke="#8F8F8F" fill="#9A0909"></path>
                <path d="M787.163721,476.059483 C785.317274,477.614193 784.39405,479.574396 784.39405,481.94009 C784.39405,485.488632 777.736149,490.272082 776.352285,486.788535 C774.968421,483.304989 767.852795,492.206254 769.482528,482.029742 C769.23444,480.018139 767.094135,479.988256 763.061614,481.94009 C757.047484,479.522023 754.040419,478.917506 754.040419,480.12654 C752.742569,480.552271 750.122896,481.186672 746.181399,482.029742 C744.658959,480.386582 744.658959,477.909451 746.181399,474.598347 C746.363439,472.211641 744.670054,470.883583 741.101242,470.614174 C739.355554,468.233796 738.48271,465.931167 738.48271,463.706286 C738.48271,460.368965 736.021086,459.524125 741.101242,456.665501 C740.022131,452.519502 741.408719,450.554311 745.261007,450.769929 C749.460186,451.701558 751.996302,451.215628 752.869354,449.312139 C754.178933,446.456905 747.840142,441.385154 743.161426,445.567993 C740.373306,445.772761 737.614847,445.772761 734.886049,445.567993 L728.618553,438.127841 C732.526993,430.028408 732.085929,425.978691 727.295362,425.978691 C724.936079,425.86478 723.252883,426.232956 722.245772,427.08322 C719.191384,421.643066 715.314417,420.098939 710.61487,422.45084 C708.408646,418.661039 705.20369,415.466106 701,412.866042 C703.418605,412.554595 704.627907,411.189697 704.627907,408.771349 C704.627907,405.143826 711.504696,398.901096 715.129885,405.883569 C717.546679,410.538551 719.077043,412.866042 719.720977,412.866042 L720.9973,408.771349 L727.295362,412.866042 C729.461283,406.189592 731.458749,404.520479 733.28776,407.858705 C736.031275,412.866042 735.864178,418.072047 738.48271,411.398082 C738.591844,410.008549 738.591844,408.170378 738.48271,405.883569 L743.161426,407.858705 L745.261007,399.000768 C747.364437,399.878606 749.551415,399.878606 751.821941,399.000768 C753.422553,398.984874 754.870384,399.215633 756.165435,399.693046 C757.861224,401.407492 759.226398,402.264715 760.260957,402.264715 C761.812796,402.264715 770.063097,403.802688 772.842334,406.794712 C774.695158,408.789394 777.382913,414.587356 780.9056,424.188598 C785.077681,428.439714 787.163721,431.472652 787.163721,433.287411 C787.163721,435.10217 787.775066,436.715647 788.997755,438.127841 C791.092058,440.849689 792.954512,442.210614 794.585116,442.210614 C796.215719,442.210614 797.062626,443.32974 797.125835,445.567993 C796.890775,446.790426 797.56472,447.562095 799.14767,447.882999 C801.522095,448.364355 809.455732,451.899106 808.97944,454.897414 C808.384877,456.024029 805.518111,455.63436 800.379141,453.728407 C797.629535,452.776293 795.698193,453.165962 794.585116,454.897414 C793.472038,456.628867 791.908965,456.239197 789.895895,453.728407 C788.375414,451.334196 785.869633,450.930478 782.37855,452.517253 C778.584755,455.899808 778.584755,456.693195 782.37855,454.897414 C784.841774,453.46986 786.436831,453.242368 787.163721,454.214939 C788.254057,455.673795 790.266633,457.995174 792.425874,457.995174 C793.865368,457.995174 794.585116,458.324334 794.585116,458.982656 C791.754028,462.20402 789.891574,464.318117 788.997755,465.324947 C787.657025,466.835193 785.472969,470.752218 785.472969,471.899783 C785.472969,472.664826 786.036553,474.051393 787.163721,476.059483 Z" id="Path-22" stroke="#8F8F8F" fill="#2D2D30"></path>
                <path d="M793.371128,461.596446 L796.278838,459 C800.229026,462.576424 802.94526,464.364636 804.42754,464.364636 C806.65096,464.364636 813,468.274239 813,472.948695 C812.482183,474.517501 810.652544,475.533786 807.511083,475.99755 C804.370497,476.341158 801.228691,479.302223 798.085666,484.880748 C795.705103,487.239622 793.15189,488.260607 790.426028,487.943701 C786.808676,486.978087 785,485.670364 785,484.020532 C785,481.545783 786.687311,477.181623 788.55667,477.181623 C790.426028,477.181623 783.676261,473.685216 787.681106,469.024926 C790.351003,465.918066 792.247677,463.441906 793.371128,461.596446 Z" id="Path-25" stroke="#8F8F8F" stroke-width="1.8432" fill="#9A0909"></path>
                <path d="M832.353429,589.279771 C833.603489,590.140785 834.5202,591.379806 835.659144,591.379806 C836.638044,591.233067 837.652878,591.417192 838.437055,591.883814 C839.298207,592.387822 840.603826,592.975832 839.687115,593.584842 C838.770404,594.193852 836.909204,596.020881 837.825914,597.532906 C838.966343,598.711086 839.418146,600.191145 839.075974,601.627973 C837.894567,603.824647 836.965174,606.094041 836.298063,608.411084 C836.298063,609.902109 835.714702,615.194195 835.436911,618.134243 C835.532524,620.340564 835.011925,622.537345 833.909059,624.581349 C832.57654,626.263806 831.451383,628.035285 830.547787,629.873436 C830.158879,630.671449 826.908723,633.611497 826.992061,636.173539 C827.075398,638.735581 826.658711,641.717629 826.992061,642.809647 C827.32541,643.901665 827.464305,644.21667 825.992012,643.859665 C824.51972,643.502659 823.603009,643.502659 823.491892,642.620644 C823.380776,641.73863 823.491892,639.428592 821.519575,638.420576 C819.928344,637.394913 818.114503,636.58497 816.158207,636.026536 C814.574797,635.816533 813.85254,635.186523 813.908099,634.43051 C813.963657,633.674498 814.241448,632.58248 813.574749,632.330476 C812.963283,632.11121 812.573853,631.645077 812.574701,631.133456 C812.574701,630.629448 809.79679,628.844419 809.407882,626.744384 C809.120217,625.612947 809.324877,624.441511 809.991244,623.40533 C810.380151,622.649317 810.463489,622.502315 809.657894,621.557299 C808.780702,620.184146 808.780702,618.583382 809.657894,617.210228 C810.278973,616.116603 810.744572,614.976182 811.04685,613.808173 C811.04685,612.863157 813.213621,610.57412 813.824761,609.167097 C815.382053,606.073241 817.326134,603.098724 819.630596,600.283951 C821.352901,598.477922 821.880704,597.847911 821.880704,597.049898 C821.859101,595.530675 823.055984,594.1527 824.908627,593.563841 C826.228343,593.349486 827.37345,592.734402 828.075446,591.862813 C828.752992,591.206029 829.348182,590.502984 829.853309,589.762779 C829.769972,589.82578 831.103369,588.418757 832.353429,589.279771 Z" id="Path" fill="#7A7A7A"></path>
                <path d="M630.07893,741.665684 C629.247964,741.665684 628.472396,741.152461 627.502936,740.823998 C626.533476,740.495536 626.865862,740.823998 626.893561,741.17299 C626.92126,741.521982 626.699669,741.583569 625.924101,741.316693 C625.148533,741.049817 621.907766,740.844527 621.270692,741.665684 C621.270692,741.542511 620.162738,741.850445 619.248676,742.589486 C618.334613,743.328527 618.223818,743.041122 617.531346,742.589486 C616.838875,742.137849 613.598108,742.219965 611.991574,742.219965 C610.385041,742.219965 610.16345,743.184824 609.775666,743.636461 C609.387882,744.088097 609.581774,743.636461 609.775666,744.313915 C609.969558,744.99137 608.363024,744.313915 606.534899,744.005981 C604.706774,743.698048 604.623678,744.149684 603.765013,744.970841 C602.906348,745.791998 602.546263,746.387336 604.56828,746.32575 C606.590297,746.264163 605.593138,746.32575 604.872967,747.064791 C604.152797,747.803832 602.740155,747.516427 601.742996,748.481286 C599.034117,750.067097 596.163284,751.494721 593.15635,752.751302 C591.328225,753.654575 592.048396,760.326474 592.740867,761.517152 C593.433338,762.707829 593.15635,762.420425 593.765725,764.966011 C594.3751,767.511597 600.745837,768.271167 601.438309,768.271167 C602.161468,768.196639 602.834601,768.559468 602.961746,769.092324 C602.961746,769.687663 607.00578,769.543961 608.002939,769.400258 C609.000098,769.256556 609.110893,769.626076 609.110893,770.529349 C609.110893,771.432621 611.631489,770.837283 612.739444,770.385646 C613.737678,770.082672 614.40779,769.377747 614.456773,768.579101 C614.650665,767.614242 616.894273,767.614242 618.196119,767.224192 C619.497965,766.834143 618.805494,767.224192 619.719556,767.757944 C620.633619,768.291696 622.350948,765.889812 623.458902,764.534904 C624.079374,763.629083 625.439578,763.14183 626.782765,763.344226 C627.89072,763.344226 628.998674,762.215135 629.718844,761.845615 C630.439015,761.476094 630.217424,760.79864 628.998674,760.264888 C627.779924,759.731136 628.998674,759.217913 629.497254,758.684161 C629.995833,758.150409 629.912737,757.411368 630.300521,755.830641 C630.772052,754.040957 631.892407,752.380262 633.541287,751.026873 C635.147821,749.836195 633.95677,748.850807 633.042708,747.885948 C632.128645,746.921088 633.95677,747.516427 635.17552,747.434311 C636.39427,747.352196 635.89569,747.742245 635.17552,748.707105 C634.455349,749.671964 637.003645,748.255468 638.305491,747.434311 C639.607337,746.613154 638.720974,746.613154 638.499383,745.9357 C638.332083,745.139873 638.332083,744.329643 638.499383,743.533816 C638.499383,742.343139 635.369412,741.583569 635.729497,741.7478 C634.699973,741.437795 633.759829,740.984885 632.959611,740.41342 C632.26714,739.900197 631.713162,740.084957 630.605208,740.002842 C629.497254,739.920726 630.605208,741.645155 629.912737,741.706742 L630.07893,741.665684 Z" id="Path-Copy" fill="#7A7A7A"></path>
                <path d="M691,289 C702.461498,295.116535 711.461498,303.783202 718,315" id="Path-34" stroke="#FFFFFF" stroke-width="2"></path>
                <circle id="Oval" stroke="#FFFFFF" fill="#FFFFFF" cx="691" cy="286" r="5"></circle>
                <circle id="Oval-Copy-2" stroke="#FFFFFF" fill="#FFFFFF" cx="729" cy="363" r="5"></circle>
                <circle id="Oval" stroke="#FFFFFF" fill="#FFFFFF" cx="721" cy="319" r="5"></circle>
                <circle id="Oval-Copy" stroke="#FFFFFF" fill="#FFFFFF" cx="772" cy="361" r="5"></circle>
                <circle id="Oval-Copy-3" stroke="#FFFFFF" fill="#FFFFFF" cx="769" cy="424" r="5"></circle>
                <circle id="Oval-Copy-4" stroke="#FFFFFF" fill="#FFFFFF" cx="812" cy="471" r="5"></circle>
                <circle id="Oval-Copy-5" stroke="#FFFFFF" fill="#FFFFFF" cx="575" cy="496" r="5"></circle>
                <path d="M691,289 C704.213094,303.495214 715.879761,326.828547 726,359" id="Path-35" stroke="#FFFFFF" stroke-width="2"></path>
                <path d="M807,470 C718.706687,439.39896 679.962372,379.065626 690.767057,289" id="Path-36" stroke="#FFFFFF" stroke-width="2"></path>
                <path d="M768,358 C758.565376,317.554566 732.89871,294.554566 691,289" id="Path-37" stroke="#FFFFFF" stroke-width="2"></path>
                <path d="M576,492 C584.405836,389.448984 622.405836,321.782318 690,289" id="Path-39" stroke="#FFFFFF" stroke-width="2"></path>
                <path d="M580.241545,556 C575.492221,545.66966 571.862541,542.226213 569.352503,545.66966 C568.02729,536.778424 564.653319,531.415016 559.23059,529.579436 L560.896748,525.147689 C557.32762,514.515657 558.795537,510.508898 565.300498,513.127413 C567.507387,512.223494 569.566173,511.214387 571.476856,510.100093 L578.530261,513.127413 L588.792178,503.683653 L594.727868,506.934064 C598.684995,497.616683 598.684995,491.706146 594.727868,489.202452 C588.792178,485.44691 588.562062,488.058415 587.611533,488.058415 C586.661004,488.058415 595.059007,482.480337 585.050051,478.611712 C586.973086,476.140703 586.973086,472.545289 585.050051,467.825471 C582.013482,463.388375 582.86731,461.169827 587.611533,461.169827 C594.727868,461.169827 592.517035,462.49677 594.727868,458.434551 C592.876009,457.795847 590.897446,456.286303 588.792178,453.905918 C588.563877,451.370555 586.565873,449.673389 582.798167,448.814419 C582.500117,448.345201 583.863786,447.073728 586.889173,445 L597.253585,447.157976 C599.315839,445.518844 601.801568,446.070992 604.710772,448.814419 C606.927498,447.573282 608.450258,446.301809 609.279055,445 C610.992029,451.455625 613.914597,455.595196 618.046757,457.418714 C624.244998,460.153989 619.860818,455.4774 634.821871,462.590271 C643.677406,462.969772 649.101098,462.969772 651.092947,462.590271 C657.370175,459.148372 660.138949,460.036953 659.399271,465.256014 C658.289753,473.084605 661.942444,474.7884 664.389723,473.936503 C666.021242,473.368571 667.174348,472.792722 667.84904,472.208956 L674.574302,476.185006 L679.417346,481.632084 C681.637438,479.618503 683.447008,478.611712 684.846057,478.611712 C686.944631,478.611712 682.344888,483.587423 695.120983,488.058415 C696.701781,488.483383 697.084565,490.375119 696.269334,493.733623 L693.949649,497.898104 C695.176459,503.59484 696.828319,508.213772 698.90523,511.7549 C699.535014,514.921278 697.025919,516.348761 691.377946,516.037349 C687.94214,514.845537 686.224237,516.347706 686.224237,520.543856 C681.518297,521.965797 678.711746,524.199785 677.804583,527.24582 C671.244164,526.143209 666.772544,527.936998 664.389723,532.627185 C659.396365,532.997713 657.732881,530.504548 659.399271,525.147689 C660.471276,519.211361 658.975277,516.959974 654.911272,518.393527 C649.990297,525.813587 645.796321,527.142104 642.329343,522.379078 C637.375611,525.036112 634.241752,525.036112 632.927766,522.379078 C631.61378,519.722044 630.304525,518.393527 629,518.393527 C607.997965,510.749182 599.901556,509.963789 604.710772,516.037349 C605.947871,521.672858 602.620236,523.175027 594.727868,520.543856 C588.479148,519.219561 584.502581,523.247338 582.798167,532.627185 C581.093752,542.007032 581.093752,548.838048 582.798167,553.120233 L580.241545,556 Z" id="Path-40" stroke="#A8A8A8" fill="#2D2D30"></path>
                <circle id="Oval-Copy-6" stroke="#FFFFFF" fill="#FFFFFF" cx="679" cy="499" r="5"></circle>
                <path d="M677.17426,494 C634.388383,425.666667 638.66363,357.333333 690,289" id="Path-41" stroke="#FFFFFF" stroke-width="2"></path>
                <path d="M692,289 C696.76475,364.984688 721.098084,410.318021 765,425" id="Path-38" stroke="#FFFFFF" stroke-width="2"></path>
            </g>
        </g>
    </g>
</svg>