<?xml version="1.0" encoding="UTF-8"?>
<svg width="140px" height="136px" viewBox="0 0 140 136" version="1.1" xmlns="http://www.w3.org/2000/svg" xmlns:xlink="http://www.w3.org/1999/xlink">
    <!-- Generator: Sketch 53.2 (72643) - https://sketchapp.com -->
    <title>Group 4</title>
    <desc>Created with Sketch.</desc>
    <g id="2in官网UI" stroke="none" stroke-width="1" fill="none" fill-rule="evenodd">
        <g id="关于我们-管理体系" transform="translate(-1572.000000, -683.000000)" fill="#FFFFFF">
            <g id="Group-4" transform="translate(1572.000000, 683.000000)">
                <text id="SPV份额及债权定价" font-family="MicrosoftYaHei, Microsoft YaHei" font-size="14" font-weight="normal">
                    <tspan x="6" y="107">SPV份额及债权定价</tspan>
                </text>
                <text id="安全垫机制与风险控制" font-family="MicrosoftYaHei, Microsoft YaHei" font-size="14" font-weight="normal">
                    <tspan x="0" y="134">安全垫机制与风险控制</tspan>
                </text>
                <g id="风险报告" transform="translate(50.000000, 0.000000)" fill-rule="nonzero">
                    <path d="M46.8783968,0 L5.12892327,0 C2.29507068,0.0135461862 0.0053897282,2.34653871 0.00733087749,5.21847235 L0.00733087749,21.6364541 L3.66907872,21.6364541 L3.66907872,5.92832516 C3.66907872,4.70892455 4.63999671,3.72145604 5.82937125,3.72145604 L46.1848839,3.72145604 C47.3742585,3.72145604 48.3451765,4.70892455 48.3451765,5.92481103 L48.3451765,47.0646466 C48.3451765,48.2805331 47.3742585,49.2715157 46.1848839,49.2715157 L5.82243612,49.2715157 C4.62710226,49.2618569 3.66366667,48.276067 3.66561116,47.0646466 L3.66561116,30.6044954 L10.621545,30.6044954 C11.1086906,30.6079287 11.5764788,30.4114562 11.9184141,30.0598064 L14.3977225,27.5331521 L19.9250199,40.6759714 C20.2197629,41.3577112 20.8751325,41.8004907 21.6796074,41.8004907 C22.4410215,41.7672166 23.1031676,41.2611431 23.3440382,40.5283782 L30.2618289,19.3839013 L33.0289452,29.2585864 C33.2555806,30.0541976 33.9733416,30.6026101 34.7904678,30.6044954 L41.3788399,30.6044954 C42.0611044,30.6470296 42.7102922,30.3023073 43.0641203,29.7096024 C43.4179484,29.1168974 43.4179484,28.3741515 43.0641203,27.7814466 C42.7102922,27.1887416 42.0611044,26.8440194 41.3788399,26.8865535 L36.174026,26.8865535 L32.1516514,12.5700172 C31.9349432,11.7852227 31.2374763,11.2362233 30.4335383,11.2176332 C29.6296002,11.199043 28.9081505,11.7152317 28.6563467,12.4891924 L21.3917996,34.6949344 L16.7001852,23.5340804 C16.4598167,22.9678597 15.9581317,22.5592044 15.3607965,22.4430606 C14.7634612,22.3269168 14.1481609,22.5183893 13.7180799,22.9542501 L9.86214846,26.8865535 L1.83126967,26.8865535 C1.337426,26.8911416 0.865935594,27.0958389 0.521971187,27.4549848 C0.17800678,27.8141306 -0.00981732599,28.2978479 0.000395748998,28.7982363 L0.000395748998,47.7744994 C-0.0053601528,50.6519068 2.28964886,52.9903111 5.12892327,53 L46.8749292,53 C49.7128479,52.9883777 52.0057494,50.65054 51.9999892,47.7744994 L51.9999892,5.21847235 C52.0057451,2.34494654 49.713841,0.00968885577 46.8783968,0 Z" id="路径"></path>
                </g>
            </g>
        </g>
    </g>
</svg>