<?xml version="1.0" encoding="UTF-8"?>
<svg width="196px" height="136px" viewBox="0 0 196 136" version="1.1" xmlns="http://www.w3.org/2000/svg" xmlns:xlink="http://www.w3.org/1999/xlink">
    <!-- Generator: Sketch 53.2 (72643) - https://sketchapp.com -->
    <title>分组 3</title>
    <desc>Created with Sketch.</desc>
    <g id="2in官网UI" stroke="none" stroke-width="1" fill="none" fill-rule="evenodd">
        <g id="关于我们-管理体系" transform="translate(-626.000000, -683.000000)" fill="#FFFFFF">
            <g id="分组-3" transform="translate(626.000000, 683.000000)">
                <g id="流程(1)" transform="translate(71.000000, 0.000000)" fill-rule="nonzero">
                    <path d="M26.5000959,13 C22.915972,13 20,10.2565397 20,6.8842552 C20,4.27061962 21.7647337,1.94532303 24.3914098,1.09807928 C25.393158,0.774735483 26.4839865,1.27707313 26.8274596,2.21976828 C27.1709325,3.16246344 26.6371207,4.18861081 25.6351808,4.51177424 C24.5586395,4.85902602 23.8354478,5.81245717 23.8354478,6.8842552 C23.8354478,8.26658604 25.0306991,9.39125224 26.5,9.39125224 C27.9693008,9.39125224 29.1644563,8.26667618 29.1644563,6.8842552 C29.1644563,5.88769953 30.0230427,5.07988136 31.0822281,5.07988136 C32.1414135,5.07988136 32.9999999,5.88769953 33,6.8842552 C33.0000959,10.2565398 30.0842197,13 26.5000959,13 L26.5000959,13 Z" id="路径"></path>
                    <path d="M25.1098658,3.88080778 C24.352864,3.88080778 23.6458736,3.40510672 23.3866165,2.64857898 C23.0602222,1.69617431 23.5672585,0.659457894 24.5191129,0.332874896 C25.1638856,0.111858879 25.8408298,-0.000624832804 26.5223891,2.610484e-06 C27.5286275,2.610484e-06 28.3442945,0.816141096 28.3442946,1.82296112 C28.3442947,2.82978114 27.5286276,3.64591953 26.5223891,3.64591953 C26.2399937,3.64591953 25.9636106,3.69158468 25.7008919,3.78173001 C25.5107137,3.8472279 25.3109945,3.8807082 25.1098658,3.88080778 L25.1098658,3.88080778 Z M49.8249247,31.2226326 C46.4198744,31.2226326 43.6497583,28.4508242 43.6497582,25.0438971 C43.6497581,21.63697 46.4198744,18.8652528 49.8249247,18.8652529 C53.2298839,18.8652529 56.0000001,21.6369701 56,25.0438971 C56,28.4509154 53.2298838,31.2226325 49.8249247,31.2226326 Z M49.8249247,22.5111698 C48.4291629,22.5111698 47.2935692,23.6473287 47.2935691,25.0438971 C47.2935691,26.4404655 48.4291628,27.5767156 49.8249247,27.5767157 C51.2206866,27.5767157 52.3561891,26.4405568 52.356189,25.0438971 C52.356189,23.6474198 51.2206864,22.5111697 49.8249247,22.5111698 Z M6.17507532,40.5322079 C2.77011612,40.5322079 -8.89701922e-08,37.7604907 0,34.3535637 C0,30.9465455 2.77011621,28.1748284 6.17507532,28.1748283 C9.58003451,28.1748283 12.3502417,30.9465455 12.3502418,34.3535637 C12.3501507,37.7604908 9.58003451,40.532208 6.17507532,40.5322079 Z M6.17507532,31.8207452 C4.77931352,31.8207452 3.64381089,32.9569952 3.64381097,34.3535637 C3.64381106,35.7501323 4.77931361,36.8862911 6.17507532,36.886291 C7.57083702,36.8862909 8.70643076,35.7501321 8.70643085,34.3535637 C8.70643094,32.9569953 7.5708372,31.8207453 6.17507532,31.8207452 Z M49.8249247,51 C46.4198744,51 43.6497583,48.2282828 43.6497582,44.8213558 C43.6497582,41.4143375 46.4198744,38.6426204 49.8249247,38.6426203 C53.2298839,38.6426203 56.0000001,41.4143375 56,44.8213558 C56,48.2282829 53.2298838,51.0000001 49.8249247,51 Z M49.8249247,42.2885372 C48.4291629,42.2885372 47.2935692,43.4247872 47.2935691,44.8213558 C47.2935691,46.2179244 48.4291629,47.3540831 49.8249247,47.3540831 C51.2206865,47.3540831 52.3561891,46.2179242 52.356189,44.8213558 C52.3561889,43.4247874 51.2206864,42.2885373 49.8249247,42.2885372 Z" id="形状"></path>
                    <path d="M44.1488796,47 L30.8793851,47 C27.0861572,47 24,43.9609506 24,40.2255113 L24,11.8230103 C24,10.8161617 24.828788,10 25.8512129,10 C26.8735453,10 27.7024259,10.8161617 27.7024259,11.8230103 L27.7024259,40.2255113 C27.7024259,41.950626 29.1274896,43.3539793 30.8792925,43.3539793 L44.1487871,43.3539793 C45.171212,43.3539793 46,44.170141 46,45.1769896 C46,46.1838382 45.1713045,46.9999999 44.1488796,47 Z" id="路径"></path>
                    <path d="M44.1488796,28 L30.8793851,28 C29.3133515,28 27.8134061,27.7504611 26.6557501,27.2974348 C24.3450661,26.393067 23.9999999,24.9436636 24,24.1601339 L24,12.8720096 C24,11.8380987 24.828788,11 25.8512129,11 C26.8735453,11 27.7024259,11.8380987 27.7024259,12.8720096 L27.7024259,23.6767811 C28.1533814,23.9076934 29.2380071,24.2559808 30.8792925,24.2559808 L44.1487871,24.2559808 C45.171212,24.2559808 46,25.0940795 46,26.1279904 C46,27.1619014 45.1713045,28 44.1488796,28 L44.1488796,28 Z" id="路径"></path>
                    <path d="M22.9342692,36 L11.8750616,36 C10.8394651,36 10,35.1619013 10,34.1279904 C10,33.0940796 10.8394651,32.2559809 11.8750616,32.2559808 L22.9342692,32.2559808 C24.1214645,32.2559808 24.9167719,31.9700313 25.2498766,31.7806775 L25.2498766,20.8720096 C25.2498766,19.8380987 26.0893417,19 27.1249383,19 C28.1605348,19 28.9999999,19.8380987 29,20.8720096 L29,32.1600403 C29,33.4331941 28.1600661,34.5578038 26.6955491,35.2455801 C25.6596713,35.7321154 24.3238774,36 22.9342692,36 L22.9342692,36 Z" id="路径"></path>
                </g>
                <text id="项目处置管理、流程化管理展示" font-family="MicrosoftYaHei, Microsoft YaHei" font-size="14" font-weight="normal">
                    <tspan x="0" y="107">项目处置管理、流程化管理展示</tspan>
                </text>
                <text id="SPV管理与财务的信息披露" font-family="MicrosoftYaHei, Microsoft YaHei" font-size="14" font-weight="normal">
                    <tspan x="16" y="134">SPV管理与财务的信息披露</tspan>
                </text>
            </g>
        </g>
    </g>
</svg>