<?xml version="1.0" encoding="UTF-8"?>
<svg width="139px" height="136px" viewBox="0 0 139 136" version="1.1" xmlns="http://www.w3.org/2000/svg" xmlns:xlink="http://www.w3.org/1999/xlink">
    <!-- Generator: Sketch 53.2 (72643) - https://sketchapp.com -->
    <title>分组</title>
    <desc>Created with Sketch.</desc>
    <g id="2in官网UI" stroke="none" stroke-width="1" fill="none" fill-rule="evenodd">
        <g id="关于我们-管理体系" transform="translate(-1115.000000, -683.000000)" fill="#FFFFFF">
            <g id="分组" transform="translate(1115.000000, 683.000000)">
                <text id="现金&amp;结算管理" font-family="MicrosoftYaHei, Microsoft YaHei" font-size="14" font-weight="normal">
                    <tspan x="22" y="107">现金&amp;结算管理</tspan>
                </text>
                <text id="时间管理及多元化退出" font-family="MicrosoftYaHei, Microsoft YaHei" font-size="14" font-weight="normal">
                    <tspan x="0" y="134">时间管理及多元化退出</tspan>
                </text>
                <g id="金融产品线性" transform="translate(44.000000, 0.000000)" fill-rule="nonzero">
                    <path d="M32.145344,9.24005096 L31.059136,8.15038405 C30.8592001,7.94987198 30.5351039,7.94987198 30.335168,8.15038405 L26.04,12.4594863 L21.744832,8.15064089 C21.5448961,7.95012882 21.2207999,7.95012882 21.020864,8.15064089 L19.934656,9.24030774 C19.7347804,9.44088033 19.7347804,9.76600857 19.934656,9.96658116 L22.659008,12.6996085 L20.664,12.6996085 C20.5282091,12.6996085 20.3979799,12.7537229 20.3019613,12.8500473 C20.2059427,12.9463717 20.152,13.0770156 20.152,13.2132389 L20.152,14.7541301 C20.152,14.8903533 20.2059427,15.0209972 20.3019613,15.1173216 C20.3979799,15.213646 20.5282091,15.2677605 20.664,15.2677605 L24.76,15.2677605 L24.76,17.5557271 L20.664,17.5557271 C20.5282091,17.5557271 20.3979799,17.6098415 20.3019613,17.7061659 C20.2059427,17.8024903 20.152,17.9331342 20.152,18.0693575 L20.152,19.6102487 C20.152,19.7464719 20.2059427,19.8771158 20.3019613,19.9734402 C20.3979799,20.0697646 20.5282091,20.1238791 20.664,20.1238791 L24.76,20.1238791 L24.76,24.0344041 C24.76,24.1706274 24.8139427,24.3012713 24.9099613,24.3975957 C25.0059799,24.4939201 25.1362091,24.5480345 25.272,24.5480345 L26.808,24.5480345 C26.9437908,24.5480345 27.0740201,24.4939201 27.1700387,24.3975957 C27.2660573,24.3012713 27.32,24.1706274 27.32,24.0344041 L27.32,20.1238791 L31.416,20.1238791 C31.6987698,20.1238791 31.928,19.8939189 31.928,19.6102487 L31.928,18.0693575 C31.928,17.9331342 31.8740573,17.8024903 31.7780387,17.7061659 C31.6820201,17.6098415 31.5517909,17.5557271 31.416,17.5557271 L27.32,17.5557271 L27.32,15.2677605 L31.416,15.2677605 C31.5517908,15.2677605 31.68202,15.213646 31.7780387,15.1173216 C31.8740573,15.0209972 31.928,14.8903533 31.928,14.7541301 L31.928,13.2132389 C31.928,13.0770156 31.8740573,12.9463717 31.7780387,12.8500473 C31.6820201,12.7537229 31.5517909,12.6996085 31.416,12.6996085 L29.420992,12.6996085 L32.145344,9.96658116 C32.2414075,9.8702508 32.2953787,9.73957537 32.2953787,9.60331606 C32.2953787,9.46705675 32.2414075,9.33638132 32.145344,9.24005096 L32.145344,9.24005096 Z M32.44,33.2797513 L32.44,24.5480345 C32.44,24.4118113 32.4939427,24.2811674 32.5899613,24.184843 C32.68598,24.0885186 32.8162092,24.0344041 32.952,24.0344041 L34.488,24.0344041 C34.6237909,24.0344041 34.7540201,24.0885186 34.8500387,24.184843 C34.9460573,24.2811674 35,24.4118113 35,24.5480345 L35,33.2797513 C35,33.4159745 34.9460573,33.5466184 34.8500387,33.6429428 C34.7540201,33.7392672 34.6237909,33.7933817 34.488,33.7933817 L32.952,33.7933817 C32.8162092,33.7933817 32.68598,33.7392672 32.5899613,33.6429428 C32.4939427,33.5466184 32.44,33.4159745 32.44,33.2797513 L32.44,33.2797513 Z M19,50.4863696 L19,42.7819136 C19,42.4982434 19.2292302,42.2682833 19.512,42.2682833 L21.048,42.2682833 C21.1837908,42.2682833 21.31402,42.3223977 21.4100386,42.4187221 C21.5060573,42.5150465 21.56,42.6456904 21.56,42.7819136 L21.56,50.4863696 C21.56,50.7700398 21.3307698,51 21.048,51 L19.512,51 C19.3762091,51 19.2459799,50.9458855 19.1499613,50.8495611 C19.0539427,50.7532368 19,50.6225929 19,50.4863696 L19,50.4863696 Z" id="形状"></path>
                    <path d="M19.5241379,48 L37.4758621,48 C37.7653355,48 38,48.2686291 38,48.6 L38,50.4 C38,50.7313709 37.7653355,51 37.4758621,51 L19.5241379,51 C19.2346645,51 19,50.7313709 19,50.4 L19,48.6 C19,48.4408701 19.0552215,48.2882578 19.1535164,48.1757359 C19.2518114,48.0632141 19.3851279,48 19.5241379,48 L19.5241379,48 Z" id="路径"></path>
                    <path d="M34.8695028,50.483871 L34.8695028,42.2258065 C34.8695028,42.0889206 34.9244704,41.9576411 35.0223133,41.8608481 C35.1201563,41.7640551 35.2528598,41.7096774 35.3912306,41.7096774 L36.956414,41.7096774 C37.0947848,41.7096774 37.2274883,41.7640551 37.3253313,41.8608481 C37.4231742,41.9576411 37.4781418,42.0889205 37.4781418,42.2258065 L37.4781418,50.483871 C37.4781418,50.6207569 37.4231742,50.7520364 37.3253312,50.8488293 C37.2274883,50.9456223 37.0947848,51 36.956414,51 L35.3912306,51 C35.1030883,51 34.8695028,50.7689212 34.8695028,50.483871 L34.8695028,50.483871 Z M43.9997391,15.0260646 C43.7391945,15.0096957 43.478215,15.0010037 43.2171474,15 C37.0221517,15 31.9999999,19.1594839 32,24.2903226 C32,24.5950968 32.0190431,24.896258 32.0537379,25.1935484 L34.4278602,25.1935484 C34.3767309,24.8980646 34.6088998,24.5969033 34.6088998,24.2903226 C34.6088998,20.5847742 38.4631638,17.5806452 43.2174083,17.5806452 C43.4816634,17.5806452 43.7420056,17.5935484 44,17.612129 L44,15.0260646 L43.9997391,15.0260646 Z" id="形状"></path>
                    <path d="M43.4780114,15.0000001 L41.9128282,15.0000001 C41.7744574,15.0000001 41.6417539,15.0533936 41.543911,15.1484347 C41.4460681,15.2434757 41.3911005,15.3723791 41.3911005,15.5067874 L41.3911005,33.8778281 C41.3911005,33.5767964 41.6232694,33.281086 41.57214,32.9909503 L43.9462621,32.9909503 C43.980957,33.2828598 44,33.5785702 44,33.8778281 L44,15.5067874 C44,15.3723352 43.9449966,15.2433934 43.8470973,15.148345 C43.7491979,15.0532967 43.6164274,14.9999328 43.4780114,15.0000001 L43.4780114,15.0000001 Z M32.7825931,40.4660633 C32.6988558,40.4660633 32.6156402,40.4647964 32.5329464,40.4625158 C32.3927558,40.4587466 32.2569705,40.5102908 32.1565575,40.6053936 C32.0561444,40.7004963 31.9996656,40.8310483 32.0000015,40.967276 L32.0000015,42.4883982 C32.0000015,42.7645973 32.2272139,42.9893575 32.5115555,42.9964525 C32.6015535,42.9987331 32.6918125,43 32.7825931,43 C36.241387,43 39.3334064,41.7261901 41.3911005,39.7246335 L41.3911005,33.8778281 C41.3911005,37.5163077 37.536837,40.4660633 32.7825931,40.4660633 L32.7825931,40.4660633 Z" id="形状"></path>
                    <path d="M42.04044,33.1594203 C42.0914,33.4514783 41.8599999,33.7491478 41.86,34.0521739 L41.86,39.937716 C43.4824,38.3440232 44.46,36.2919652 44.46,34.0521739 C44.46,33.7509334 44.4410199,33.4532638 44.40644,33.1594203 L42.04044,33.1594203 Z M21.45,41.8188753 C21.45,41.6112463 21.27606,41.4490202 21.06468,41.4492753 L21.06,41.4492753 C16.3215,41.4492753 12.48,38.4799768 12.48,34.8173913 L12.48,31.6289855 C12.48,31.4936867 12.4252145,31.3639293 12.3276955,31.2682586 C12.2301766,31.1725878 12.0979126,31.1188406 11.96,31.1188406 L10.4,31.1188406 C10.2620874,31.1188406 10.1298234,31.1725878 10.0323045,31.2682586 C9.93478556,31.3639293 9.88000002,31.4936867 9.88000003,31.6289855 L9.88000003,34.8173913 C9.88000003,36.8666435 10.69796,38.758771 12.0796,40.2866551 C14.11696,42.5397101 17.38048,44 21.06,44 C21.19078,44 21.32078,43.9974493 21.45,43.992858 L21.45,41.8188753 L21.45,41.8188753 Z M51.48,0 L0.52000004,0 C0.38208746,-1.58553351e-08 0.249823415,0.0537472327 0.152304489,0.149417963 C0.0547855632,0.245088693 -8.65973959e-16,0.374846056 0,0.510144908 L0,30.0985507 C0,30.2338496 0.0547855632,30.363607 0.152304489,30.4592777 C0.249823415,30.5549484 0.38208746,30.6086957 0.52000004,30.6086957 L35.1,30.6086957 L35.1,28.057971 L3.12,28.057971 C2.83281194,28.057971 2.60000002,27.8295713 2.60000002,27.5478261 L2.60000002,3.06086957 C2.60000002,2.77912431 2.83281194,2.55072466 3.12,2.55072466 L48.88,2.55072466 C49.1671881,2.55072466 49.4,2.77912431 49.4,3.06086957 L49.4,27.5478261 C49.4,27.8295713 49.1671881,28.057971 48.88,28.057971 L41.86,28.057971 L41.86,30.6086957 L51.48,30.6086957 C51.6179125,30.6086957 51.7501766,30.5549484 51.8476955,30.4592777 C51.9452144,30.363607 52,30.2338496 52,30.0985507 L52,0.510144908 C52,0.374846056 51.9452144,0.245088693 51.8476955,0.149417963 C51.7501766,0.0537472327 51.6179125,-1.58553342e-08 51.48,0 Z" id="形状"></path>
                </g>
            </g>
        </g>
    </g>
</svg>