<?xml version="1.0" encoding="UTF-8"?>
<svg width="154px" height="136px" viewBox="0 0 154 136" version="1.1" xmlns="http://www.w3.org/2000/svg" xmlns:xlink="http://www.w3.org/1999/xlink">
    <!-- Generator: Sketch 53.2 (72643) - https://sketchapp.com -->
    <title>分组 4</title>
    <desc>Created with Sketch.</desc>
    <g id="2in官网UI" stroke="none" stroke-width="1" fill="none" fill-rule="evenodd">
        <g id="关于我们-管理体系" transform="translate(-195.000000, -683.000000)" fill="#FFFFFF">
            <g id="分组-4" transform="translate(195.000000, 683.000000)">
                <g id="区域排序(1)" transform="translate(53.000000, 0.000000)" fill-rule="nonzero">
                    <path d="M34.0024839,15 C36.7595628,15 39,12.75571 39,10 C39,7.24428997 36.7545951,5 34.0024839,5 C31.2454049,5 29,7.24428997 29,10 C29,12.75571 31.2454049,15 34.0024839,15 Z M34.0024839,6.9612711 C35.6815698,6.9612711 37.04769,8.32671301 37.04769,10.0049652 C37.04769,11.6832175 35.6815698,13.0486594 34.0024839,13.0486594 C32.3233979,13.0486594 30.9572777,11.6832175 30.9572777,10.0049652 C30.9572777,8.32671301 32.3233979,6.9612711 34.0024839,6.9612711 L34.0024839,6.9612711 Z" id="形状"></path>
                    <path d="M43.5246094,6.38834951 C42.0011719,2.64660194 38.35,0 34.0589844,0 C29.65625,0 25.9339844,2.7987055 24.4867187,6.69762675 L17.0726562,8.55329018 L0,4.48705502 L0,43.5269687 L17.1234375,46.7160734 L34.1859375,42.1529666 L52,47 L52,8.35048544 L43.5246094,6.38834951 Z M34.0792969,1.99762675 C38.6292969,1.99762675 42.33125,5.68867314 42.33125,10.2264293 C42.33125,15.9049622 36.1257812,22.2933118 34.0640625,24.2655879 C32.0074219,22.2933118 25.8324219,15.9049622 25.8324219,10.2264293 C25.8324219,5.68867314 29.5292969,1.99762675 34.0792969,1.99762675 L34.0792969,1.99762675 Z M1.98046875,7.01704423 L15.9960938,10.337972 L15.9960938,44.4700108 L1.98046875,41.8690399 L1.98046875,7.01704423 Z M50.0195312,44.3888889 L36.0039062,40.3277238 L36.0039062,33.0774542 C36.0039062,32.5248112 35.5671875,32.0786408 35.0136719,32.0786408 C34.4601562,32.0786408 34.0234375,32.5248112 34.0234375,33.0774542 L34.0234375,40.3733549 L17.9765625,44.4243797 L17.9765625,10.3886731 L23.9535156,8.88791802 C23.8925781,9.32901834 23.8214844,9.77011866 23.8214844,10.2264293 C23.8214844,17.9076591 33.0027344,26.0350593 33.39375,26.3798274 L34.0539062,26.9578209 L34.7140625,26.3848975 C35.1050781,26.0451996 44.3269531,17.9177994 44.3269531,10.2314995 C44.3269531,9.66364617 44.2152344,9.12114347 44.1289062,8.57864078 L50.0195312,9.9425027 L50.0195312,44.3888889 L50.0195312,44.3888889 Z" id="形状"></path>
                </g>
                <text id="各区域管理团队能力评估" font-family="MicrosoftYaHei, Microsoft YaHei" font-size="14" font-weight="normal">
                    <tspan x="0" y="107">各区域管理团队能力评估</tspan>
                </text>
                <text id="项目遴选与结构化管理" font-family="MicrosoftYaHei, Microsoft YaHei" font-size="14" font-weight="normal">
                    <tspan x="9" y="134">项目遴选与结构化管理</tspan>
                </text>
            </g>
        </g>
    </g>
</svg>