<?xml version="1.0" encoding="UTF-8"?>
<svg width="291px" height="472px" viewBox="0 0 291 472" version="1.1" xmlns="http://www.w3.org/2000/svg" xmlns:xlink="http://www.w3.org/1999/xlink">
    <!-- Generator: Sketch 53.2 (72643) - https://sketchapp.com -->
    <title>Group 4</title>
    <desc>Created with Sketch.</desc>
    <g id="2in官网UI" stroke="none" stroke-width="1" fill="none" fill-rule="evenodd">
        <g id="业务板块" transform="translate(-1509.000000, -355.000000)" fill="#FFFFFF">
            <g id="Group-4" transform="translate(1509.000000, 355.000000)">
                <text id="秃鹰资产（BE）拥有一套标准的项目筛选及" font-family="MicrosoftYaHei, Microsoft YaHei" font-size="14" font-weight="normal" line-spacing="30" letter-spacing="2">
                    <tspan x="0" y="215">秃鹰资产（BE）拥有一套标准的项目筛选</tspan>
                    <tspan x="0" y="245">及管理与退出体系。我们凭借既往超过10</tspan>
                    <tspan x="0" y="275">年的项目批量筛选与退出实践，对在管资</tspan>
                    <tspan x="0" y="305">产的重新估值、价值提升、分类退出等方</tspan>
                    <tspan x="0" y="335">面游刃有余，且在提升资产收益上限方面</tspan>
                    <tspan x="0" y="365">不遗余力</tspan>
                </text>
                <text id="BE管理系统" font-family="Helvetica" font-size="20" font-weight="normal" line-spacing="26" letter-spacing="2">
                    <tspan x="92" y="166">BE</tspan>
                    <tspan x="140.253359" y="168.431641" font-family="PingFangSC-Regular, PingFang SC">管理系</tspan>
                    <tspan x="146.913516" y="194.431641" font-family="PingFangSC-Regular, PingFang SC">统</tspan>
                </text>
                <g id="下一步-copy-2" transform="translate(131.000000, 454.000000)" fill-rule="nonzero">
                    <path d="M37.5925926,10.2857143 L1.2962963,10.2857143 C0.576131687,10.2857143 0,9.71428571 0,9 C0,8.28571429 0.576131687,7.71428571 1.2962963,7.71428571 L37.5925926,7.71428571 C38.3127572,7.71428571 38.8888889,8.28571429 38.8888889,9 C38.8888889,9.71428571 38.3127572,10.2857143 37.5925926,10.2857143 Z" id="路径"></path>
                    <path d="M28.9468599,18 C28.6634461,18 28.3800322,17.884058 28.0966184,17.6521739 C27.6714976,17.3043478 27.6714976,16.6086957 28.0966184,16.2608696 L37.0241546,8.95652174 L28.0966184,1.65217391 C27.6714976,1.30434783 27.6714976,0.608695652 28.0966184,0.260869565 C28.5217391,-0.0869565217 29.3719807,-0.0869565217 29.7971014,0.260869565 L39.5748792,8.26086957 C39.8582931,8.49275362 40,8.72463768 40,8.95652174 C40,9.1884058 39.8582931,9.42028986 39.5748792,9.65217391 L29.7971014,17.6521739 C29.5136876,17.884058 29.2302738,18 28.9468599,18 Z" id="路径"></path>
                </g>
                <g id="系统设置" transform="translate(123.000000, 0.000000)" fill-rule="nonzero">
                    <path d="M54.7826087,25.59375 C54.4597364,25.59375 54.1500882,25.7221536 53.921783,25.9507136 C53.6934779,26.1792736 53.5652174,26.4892674 53.5652174,26.8125 L53.5652174,31.6875 C53.5652174,32.9804304 53.0521754,34.2204057 52.1389547,35.1346455 C51.2257341,36.0488854 49.9871412,36.5625 48.6956522,36.5625 L7.30434782,36.5625 C4.61496123,36.5625 2.43478263,34.3798881 2.43478263,31.6875 L2.43478263,7.3125 C2.43478263,4.62011185 4.61496123,2.43750002 7.30434782,2.43750002 L48.6956522,2.43750002 C49.9871412,2.43750002 51.2257341,2.95111461 52.1389547,3.86535445 C53.0521754,4.77959429 53.5652174,6.01956961 53.5652174,7.3125 C53.5652174,7.98559704 54.110262,8.53125001 54.7826087,8.53125001 C55.4549553,8.53125001 56,7.98559704 56,7.3125 C56,3.27391777 52.7297321,2.02962647e-16 48.6956522,0 L7.30434782,0 C3.27026791,-2.02962647e-16 4.05472757e-16,3.27391777 0,7.3125 L0,31.6875 C4.05472757e-16,35.7260822 3.27026791,39 7.30434782,39 L48.6956522,39 C52.7297321,39 56,35.7260822 56,31.6875 L56,26.8125 C56,26.4892674 55.8717395,26.1792736 55.6434343,25.9507136 C55.4151292,25.7221536 55.1054809,25.59375 54.7826087,25.59375 L54.7826087,25.59375 Z" id="路径"></path>
                    <path d="M54.7810034,15.575 C54.1104354,15.575 53.5668326,16.1234512 53.5668326,16.8 L53.5668326,21.6999999 C53.5668326,22.3765488 54.1104354,22.925 54.7810034,22.925 C55.4515715,22.925 55.9951743,22.3765488 55.9951743,21.6999999 L55.9951743,16.8 C55.9951743,16.4751098 55.867253,16.1635262 55.6395518,15.9337942 C55.4118506,15.7040621 55.1030215,15.575 54.7810034,15.575 L54.7810034,15.575 Z M53.9189422,11.03025 C53.6890843,11.260264 53.5597925,11.573369 53.5597925,11.9 C53.5597925,12.2266309 53.6890843,12.5397359 53.9189422,12.7697499 C54.1469229,13.0016579 54.4572599,13.1321029 54.7810034,13.1321029 C55.1047469,13.1321029 55.415084,13.0016579 55.6430647,12.7697499 L55.7887652,12.57375 C55.8368227,12.5112117 55.8737931,12.4407559 55.8980406,12.3654999 C55.941858,12.2976919 55.9746496,12.2232527 55.9951743,12.1449999 C56.0016086,12.0634623 56.0016086,11.9815376 55.9951743,11.9 C55.9980429,11.4023253 55.7021903,10.9523644 55.2466155,10.7615205 C54.7910407,10.5706767 54.2663048,10.6768865 53.9189422,11.03025 L53.9189422,11.03025 Z M49.9243202,53.55 L6.21417082,53.55 C5.54360279,53.55 5,54.0984512 5,54.775 C5,55.4515488 5.54360279,56 6.21417082,56 L49.9243202,56 C50.5948882,56 51.138491,55.4515488 51.138491,54.775 C51.138491,54.0984512 50.5948882,53.55 49.9243202,53.55 L49.9243202,53.55 Z M37.782612,47.425 C38.45318,47.425 38.9967828,46.8765488 38.9967828,46.2 C38.9967828,45.5234512 38.45318,44.975 37.782612,44.975 L18.355879,44.975 C17.6853109,44.975 17.1417082,45.5234512 17.1417082,46.2 C17.1417082,46.8765488 17.6853109,47.425 18.355879,47.425 L37.782612,47.425 Z M38.9967828,20.475 C39.6673508,20.4749999 40.2109536,19.9265488 40.2109536,19.25 C40.2109536,18.5734512 39.6673508,18.025 38.9967828,18.0249999 L36.4713075,18.0249999 C36.2668636,16.6121257 35.7159643,15.2731222 34.8686021,14.1294999 L36.6534332,12.3287499 C36.9999285,12.0293723 37.1508568,11.5593049 37.0441654,11.1118118 C36.937474,10.6643187 36.5911698,10.3149257 36.1476325,10.2072827 C35.7040953,10.0996398 35.2381834,10.2519143 34.9414523,10.6014999 L33.1444795,12.39 C32.010967,11.5350801 30.6838005,10.9792673 29.2834163,10.773 L29.2834163,8.22499998 C29.2834163,7.54845117 28.7398135,7 28.0692455,7 C27.3986775,7 26.8550747,7.54845117 26.8550747,8.22499998 L26.8550747,10.773 C25.4546905,10.9792673 24.127524,11.5350801 22.9940115,12.39 L21.1970387,10.58925 C20.7153039,10.1730232 19.997202,10.2010077 19.5487249,10.6534849 C19.1002477,11.105962 19.0725106,11.8304686 19.4850578,12.3165 L21.2698889,14.11725 C20.4206692,15.2644065 19.8696775,16.607846 19.6671834,18.0249999 L17.1417082,18.0249999 C16.4711401,18.0249999 15.9275373,18.5734511 15.9275373,19.25 C15.9275373,19.9265488 16.4711401,20.475 17.1417082,20.475 L19.6671834,20.475 C19.8716273,21.8878742 20.4225266,23.2268777 21.2698889,24.3705 L19.4850578,26.17125 C19.1385625,26.4706276 18.9876341,26.940695 19.0943255,27.3881881 C19.201017,27.8356812 19.5473212,28.1850742 19.9908584,28.2927172 C20.4343957,28.4003602 20.9003076,28.2480857 21.1970387,27.8985 L22.9818698,26.09775 C24.1176706,26.9589177 25.4493268,27.5190741 26.8550747,27.727 L26.8550747,30.275 C26.8550747,30.9515488 27.3986775,31.5 28.0692455,31.5 C28.7398135,31.5 29.2834163,30.9515488 29.2834163,30.275 L29.2834163,27.727 C30.6838005,27.5207326 32.010967,26.9649198 33.1444795,26.11 L34.9293106,27.91075 C35.4110453,28.3269767 36.1291472,28.2989922 36.5776244,27.8465151 C37.0261016,27.3940379 37.0538386,26.6695313 36.6412914,26.1835 L34.8686021,24.3705 C35.7159643,23.2268777 36.2668636,21.8878742 36.4713075,20.475 L38.9967828,20.475 Z M28.0692455,25.3749999 C25.6138142,25.3749999 23.4001605,23.8826916 22.4605076,21.5939359 C21.5208548,19.3051803 22.0402513,16.6707086 23.7765034,14.9189709 C25.5127555,13.1672331 28.1239381,12.6432041 30.3924608,13.5912378 C32.6609835,14.5392714 34.1400996,16.7726687 34.1400996,19.25 C34.1400996,22.6327441 31.4220856,25.3749999 28.0692455,25.3749999 L28.0692455,25.3749999 Z" id="形状"></path>
                </g>
            </g>
        </g>
    </g>
</svg>