<?xml version="1.0" encoding="UTF-8"?>
<svg width="340px" height="472px" viewBox="0 0 340 472" version="1.1" xmlns="http://www.w3.org/2000/svg" xmlns:xlink="http://www.w3.org/1999/xlink">
    <!-- Generator: Sketch 53.2 (72643) - https://sketchapp.com -->
    <title>Group 2</title>
    <desc>Created with Sketch.</desc>
    <g id="2in官网UI" stroke="none" stroke-width="1" fill="none" fill-rule="evenodd">
        <g id="业务板块" transform="translate(-445.000000, -355.000000)" fill="#FFFFFF">
            <g id="Group-2" transform="translate(445.000000, 355.000000)">
                <text id="经过十多年的经营实践，秃鹰团队在不良资产" font-family="MicrosoftYaHei, Microsoft YaHei" font-size="14" font-weight="normal" line-spacing="30" letter-spacing="2">
                    <tspan x="0" y="215">经过十多年的经营实践，秃鹰团队在不良资产领</tspan>
                    <tspan x="0" y="245">域具备项目资产自主筛选定制、 重组基金运作退</tspan>
                    <tspan x="0" y="275">出的全盘思维和综合运营能力。秃鹰资产通过这</tspan>
                    <tspan x="0" y="305">一整套完善的项目流程体系，完成价值分类、重</tspan>
                    <tspan x="0" y="335">估和提升，挖掘不良资产的黄金价值，实现不良</tspan>
                    <tspan x="0" y="365">资产经营收益最大化</tspan>
                </text>
                <text id="不良资产管理与价值挖掘" font-family="PingFangSC-Regular, PingFang SC" font-size="20" font-weight="normal" line-spacing="26" letter-spacing="2">
                    <tspan x="55" y="168">不良资产管理与价值挖</tspan>
                    <tspan x="275" y="168">掘</tspan>
                </text>
                <g id="下一步" transform="translate(155.000000, 454.000000)" fill-rule="nonzero">
                    <path d="M37.5925926,10.2857143 L1.2962963,10.2857143 C0.576131687,10.2857143 0,9.71428571 0,9 C0,8.28571429 0.576131687,7.71428571 1.2962963,7.71428571 L37.5925926,7.71428571 C38.3127572,7.71428571 38.8888889,8.28571429 38.8888889,9 C38.8888889,9.71428571 38.3127572,10.2857143 37.5925926,10.2857143 Z" id="路径"></path>
                    <path d="M28.9468599,18 C28.6634461,18 28.3800322,17.884058 28.0966184,17.6521739 C27.6714976,17.3043478 27.6714976,16.6086957 28.0966184,16.2608696 L37.0241546,8.95652174 L28.0966184,1.65217391 C27.6714976,1.30434783 27.6714976,0.608695652 28.0966184,0.260869565 C28.5217391,-0.0869565217 29.3719807,-0.0869565217 29.7971014,0.260869565 L39.5748792,8.26086957 C39.8582931,8.49275362 40,8.72463768 40,8.95652174 C40,9.1884058 39.8582931,9.42028986 39.5748792,9.65217391 L29.7971014,17.6521739 C29.5136876,17.884058 29.2302738,18 28.9468599,18 Z" id="路径"></path>
                </g>
                <g id="资产" transform="translate(147.000000, 0.000000)" fill-rule="nonzero">
                    <path d="M48.4922961,54.7436627 L48.4922961,25.8286763 C48.4922961,25.1364088 49.05525,24.572339 49.7461481,24.572339 C50.4370461,24.572339 51,25.1364088 51,25.8286763 L51,54.7436627 C51,55.4359302 50.4370461,56 49.7461481,56 C49.05525,56 48.4922961,55.4359302 48.4922961,54.7436627 Z M33.0046657,54.7436627 L33.0046657,32.0142143 C33.0046657,31.3219468 33.5676197,30.757877 34.2585177,30.757877 C34.9494157,30.757877 35.5123696,31.3219468 35.5123696,32.0142143 L35.5123696,54.7436627 C35.5123696,55.4359302 34.9494157,56 34.2585177,56 C33.5612225,56 33.0046657,55.4359302 33.0046657,54.7436627 Z M46.8098315,1.0608847 C46.2084944,1.25318122 45.8438537,1.86853007 45.9654006,2.49028882 C46.1637139,3.52228013 46.2468776,4.5735011 46.2020972,5.63113195 C45.632746,18.1752748 27.7141782,27.5849845 6.25795666,26.6106821 C4.60747808,26.5337635 2.98898552,26.3991559 1.40247898,26.2068594 C0.679594947,26.117121 0.033477364,26.6683711 0.001491345,27.3926879 C-0.030494674,28.052906 0.455692814,28.6233857 1.1082076,28.7003043 C2.75868618,28.8990107 4.43475358,29.0400281 6.14280699,29.1169467 C28.9808245,30.1553479 48.0764779,19.6687778 48.709801,5.74009998 C48.7673759,4.47735284 48.6714178,3.23383536 48.4283241,2.00954752 C48.2875856,1.27882075 47.5263183,0.830128876 46.8098315,1.0608847 Z M2.02300774,54.7436627 L2.02300774,44.9814095 C2.02300774,44.289142 2.58596168,43.7250722 3.27685969,43.7250722 C3.9677577,43.7250722 4.53071163,44.289142 4.53071163,44.9814095 L4.53071163,54.7436627 C4.53071163,55.4359302 3.9677577,56 3.27685969,56 C2.57956447,56 2.02300774,55.4359302 2.02300774,54.7436627 Z" id="形状"></path>
                    <path d="M53.8417138,8.6228735 L47.3242611,1.94696747 C46.8609952,1.47223638 46.8990718,0.736403181 47.4067605,0.303211057 C47.9144491,-0.129981068 48.7013665,-0.0943762356 49.1646323,0.38035486 L55.6757389,7.05032675 C56.1390048,7.52505785 56.1009282,8.26089104 55.5932395,8.69408317 C55.091897,9.12727529 54.3049797,9.0976046 53.8417138,8.6228735 Z" id="路径"></path>
                    <path d="M39.4872832,7.00135758 L46.8521139,0.331827324 C47.3758352,-0.142248341 48.1876032,-0.103283218 48.6654989,0.416251758 C49.1433946,0.935786734 49.1041155,1.74106595 48.5803942,2.21514161 L41.2221099,8.88467187 C40.6983887,9.35874753 39.8866206,9.31978241 39.408725,8.80024743 C38.9308293,8.28071246 38.9635619,7.47543324 39.4872832,7.00135758 Z M17,54.7271393 L17,38.6280492 C17,37.926677 17.5760934,37.3551885 18.2831172,37.3551885 C18.9901409,37.3551885 19.5662344,37.926677 19.5662344,38.6280492 L19.5662344,54.7271393 C19.5662344,55.4285115 18.9901409,56 18.2831172,56 C17.5760934,56 17,55.4285115 17,54.7271393 Z" id="形状"></path>
                </g>
            </g>
        </g>
    </g>
</svg>