<?xml version="1.0" encoding="UTF-8"?>
<svg width="319px" height="472px" viewBox="0 0 319 472" version="1.1" xmlns="http://www.w3.org/2000/svg" xmlns:xlink="http://www.w3.org/1999/xlink">
    <!-- Generator: Sketch 53.2 (72643) - https://sketchapp.com -->
    <title>Group 3</title>
    <desc>Created with Sketch.</desc>
    <g id="2in官网UI" stroke="none" stroke-width="1" fill="none" fill-rule="evenodd">
        <g id="业务板块" transform="translate(-980.000000, -355.000000)" fill="#FFFFFF">
            <g id="Group-3" transform="translate(980.000000, 355.000000)">
                <text id="秃鹰资产成立于2009年，是首批在中国证" font-family="MicrosoftYaHei, Microsoft YaHei" font-size="14" font-weight="normal" line-spacing="30" letter-spacing="2">
                    <tspan x="0" y="215">秃鹰资产成立于2009年，是首批在中国证券</tspan>
                    <tspan x="0" y="245">投资基金业协会成功备案的专业不良资产基金</tspan>
                    <tspan x="0" y="275">管理人（登记编号：P1016353）。自成立</tspan>
                    <tspan x="0" y="305">以来已有数款产品连续备案成功。严格遵守法</tspan>
                    <tspan x="0" y="335">律法规，力求为投资人打造专业、合规的金融</tspan>
                    <tspan x="0" y="365">产品</tspan>
                    <tspan x="32" y="365"> </tspan>
                </text>
                <text id="不良资产基金" font-family="PingFangSC-Regular, PingFang SC" font-size="20" font-weight="normal" line-spacing="26" letter-spacing="2">
                    <tspan x="95" y="168">不良资产基</tspan>
                    <tspan x="205" y="168">金</tspan>
                </text>
                <g id="下一步-copy" transform="translate(140.000000, 454.000000)" fill-rule="nonzero">
                    <path d="M37.5925926,10.2857143 L1.2962963,10.2857143 C0.576131687,10.2857143 0,9.71428571 0,9 C0,8.28571429 0.576131687,7.71428571 1.2962963,7.71428571 L37.5925926,7.71428571 C38.3127572,7.71428571 38.8888889,8.28571429 38.8888889,9 C38.8888889,9.71428571 38.3127572,10.2857143 37.5925926,10.2857143 Z" id="路径"></path>
                    <path d="M28.9468599,18 C28.6634461,18 28.3800322,17.884058 28.0966184,17.6521739 C27.6714976,17.3043478 27.6714976,16.6086957 28.0966184,16.2608696 L37.0241546,8.95652174 L28.0966184,1.65217391 C27.6714976,1.30434783 27.6714976,0.608695652 28.0966184,0.260869565 C28.5217391,-0.0869565217 29.3719807,-0.0869565217 29.7971014,0.260869565 L39.5748792,8.26086957 C39.8582931,8.49275362 40,8.72463768 40,8.95652174 C40,9.1884058 39.8582931,9.42028986 39.5748792,9.65217391 L29.7971014,17.6521739 C29.5136876,17.884058 29.2302738,18 28.9468599,18 Z" id="路径"></path>
                </g>
                <g id="基金" transform="translate(132.000000, 0.000000)" fill-rule="nonzero">
                    <path d="M39.4914995,12.6763108 C39.8570004,11.9781039 40.0317399,11.5253584 40.0317399,11.2875325 C39.9125766,10.3590099 39.3723988,9.84493033 38.4190297,9.7297725 C37.4577747,9.7297725 36.7427948,10.1364549 36.266079,10.9421842 L28.0040055,22.904892 L19.7418069,10.9345487 C19.2651536,10.128882 18.5421627,9.72219962 17.5888562,9.72219962 C16.6275386,9.83729486 16.0953092,10.3590725 15.9761459,11.279897 C16.0953092,11.7479134 16.2701113,12.208357 16.5163863,12.668738 C16.6355496,12.7838958 16.6991368,12.8989284 16.6991368,13.0140237 L24.0635424,23.9408743 L19.7496927,23.9408743 C18.4310104,23.9408743 17.771544,24.4626519 17.771544,25.4985717 C17.8907074,26.3119364 18.5501111,26.7723174 19.7496927,26.8874752 L26.0337427,26.8874752 L26.0337427,30.0028074 L19.7496927,30.0028074 C18.4310104,30.0028074 17.771544,30.524585 17.771544,31.5605048 C17.8907074,32.3662341 18.5501111,32.8342505 19.7496927,32.9493458 L26.0337427,32.9493458 L26.0337427,39.8861028 C26.0337427,41.0370552 26.685198,41.6202295 28.0118913,41.6202295 C29.3226878,41.6202295 29.9820915,41.0370552 29.9820915,39.8861028 L29.9820915,32.9647419 L36.2661415,32.9647419 C37.4577747,32.849584 38.1171785,32.3815676 38.2442902,31.5758383 C38.2442902,30.5322831 37.5848864,30.0181409 36.2661415,30.0181409 L29.9820915,30.0181409 L29.9820915,26.9028088 L36.2661415,26.9028088 C37.4577747,26.7876509 38.1171785,26.32727 38.2442902,25.5139052 C38.2442902,24.47035 37.5848864,23.9562078 36.2661415,23.9562078 L31.9602402,23.9562078 L39.3247084,13.0293572 C39.31676,12.9066265 39.3723988,12.7915313 39.4915621,12.6763734 L39.4914995,12.6763108 Z M52.6872723,34.3228532 L48.0397777,34.8062657 C47.5472277,34.8522663 47.1182022,35.1592495 46.9196175,35.5965989 C46.7210328,36.0263128 46.776609,36.5403924 47.062626,36.9240432 L47.5233825,37.5303116 L27.1539655,52.1863983 L21.6802135,45.6103231 C21.1241389,44.9427206 20.1072452,44.8122918 19.3922027,45.326434 C17.0963061,46.9761951 13.6881351,49.4009558 13.1320605,49.7462415 C12.4170806,50.1069233 12.0674764,50.9202881 12.3297108,51.6799542 C12.6236136,52.523986 13.5610234,52.9690335 14.4349086,52.6928424 C14.7209256,52.6007162 14.9195102,52.531684 20.0913484,48.8254796 L25.5650378,55.4014922 C25.8907342,55.7928411 26.3753358,56 26.8599375,56 C27.2015933,56 27.5511348,55.9002383 27.852986,55.6776833 L49.4935201,40.1162307 L49.8271649,40.5612156 C50.0893993,40.9065639 50.5104138,41.1060874 50.9473877,41.1060874 C50.9950155,41.1060874 51.0427059,41.1060874 51.0903336,41.0983893 C51.5828837,41.0446907 52.0119092,40.7454055 52.2184422,40.3080561 L54.1092211,36.1721377 C54.29992,35.7347257 54.2522296,35.2283442 53.9582642,34.8369328 C53.6643614,34.4763135 53.1796972,34.2691546 52.6871471,34.3228532 L52.6872723,34.3228532 Z M28.0040055,0 C12.5600265,0 0,12.1315642 0,27.0485084 C0,34.2691546 2.91555838,41.0600242 8.1985489,46.1704658 C8.52430787,46.4850845 8.94532238,46.6385448 9.37434788,46.6385448 C9.81167011,46.6384693 10.2323719,46.4709814 10.5500843,46.1704658 C11.2016022,45.541291 11.2016022,44.5284028 10.5500843,43.8991654 C5.88675551,39.4025651 3.32073869,33.4097267 3.32073869,27.048571 C3.32073869,13.9041186 14.3872808,3.21515649 27.9959945,3.21515649 C41.6047082,3.21515649 52.6713129,13.9041186 52.6713129,27.0485084 C52.6713129,27.9386034 53.4180864,28.652269 54.3395994,28.652269 C55.2611749,28.652269 56,27.9309679 56,27.0485084 C56,12.1315642 43.4399109,1.77879474e-15 28.0039429,1.77879474e-15 L28.0040055,0 Z" id="形状"></path>
                </g>
            </g>
        </g>
    </g>
</svg>